<svg width="180" height="365" xmlns="http://www.w3.org/2000/svg" xmlns:xlink="http://www.w3.org/1999/xlink" overflow="hidden"><defs><clipPath id="clip0"><rect x="143" y="92" width="180" height="365"/></clipPath><clipPath id="clip1"><rect x="144" y="31" width="176" height="158"/></clipPath><clipPath id="clip2"><rect x="144" y="63" width="176" height="158"/></clipPath><clipPath id="clip3"><rect x="144" y="96" width="176" height="158"/></clipPath><clipPath id="clip4"><rect x="144" y="128" width="176" height="158"/></clipPath><clipPath id="clip5"><rect x="144" y="161" width="176" height="158"/></clipPath><clipPath id="clip6"><rect x="144" y="193" width="176" height="158"/></clipPath><clipPath id="clip7"><rect x="144" y="226" width="176" height="157"/></clipPath><clipPath id="clip8"><rect x="144" y="258" width="176" height="158"/></clipPath><clipPath id="clip9"><rect x="144" y="291" width="176" height="157"/></clipPath><clipPath id="clip10"><rect x="144" y="323" width="176" height="158"/></clipPath><clipPath id="clip11"><rect x="144" y="355" width="176" height="158"/></clipPath></defs><g clip-path="url(#clip0)" transform="translate(-143 -92)"><path d="M144.567 93.9385 320 93.9385 320 126.373 144.567 126.373Z" fill="#4472C4" fill-rule="evenodd"/><path d="M144.567 126.373 320 126.373 320 158.808 144.567 158.808Z" fill="#CFD5EA" fill-rule="evenodd"/><path d="M144.567 158.808 320 158.808 320 191.243 144.567 191.243Z" fill="#E9EBF5" fill-rule="evenodd"/><path d="M144.567 191.243 320 191.243 320 223.678 144.567 223.678Z" fill="#CFD5EA" fill-rule="evenodd"/><path d="M144.567 223.678 320 223.678 320 256.113 144.567 256.113Z" fill="#E9EBF5" fill-rule="evenodd"/><path d="M144.567 256.113 320 256.113 320 288.548 144.567 288.548Z" fill="#CFD5EA" fill-rule="evenodd"/><path d="M144.567 288.548 320 288.548 320 320.983 144.567 320.983Z" fill="#E9EBF5" fill-rule="evenodd"/><path d="M144.567 320.983 320 320.983 320 353.418 144.567 353.418Z" fill="#CFD5EA" fill-rule="evenodd"/><path d="M144.567 353.418 320 353.418 320 385.853 144.567 385.853Z" fill="#E9EBF5" fill-rule="evenodd"/><path d="M144.567 385.853 320 385.853 320 418.288 144.567 418.288Z" fill="#CFD5EA" fill-rule="evenodd"/><path d="M144.567 418.288 320 418.288 320 450.723 144.567 450.723Z" fill="#E9EBF5" fill-rule="evenodd"/><path d="M143.901 126.373 320.667 126.373" stroke="#FFFFFF" stroke-width="4" stroke-linejoin="round" stroke-miterlimit="10" fill="none" fill-rule="evenodd"/><path d="M143.901 158.808 320.667 158.808" stroke="#FFFFFF" stroke-width="1.33333" stroke-linejoin="round" stroke-miterlimit="10" fill="none" fill-rule="evenodd"/><path d="M143.901 191.243 320.667 191.243" stroke="#FFFFFF" stroke-width="1.33333" stroke-linejoin="round" stroke-miterlimit="10" fill="none" fill-rule="evenodd"/><path d="M143.901 223.678 320.667 223.678" stroke="#FFFFFF" stroke-width="1.33333" stroke-linejoin="round" stroke-miterlimit="10" fill="none" fill-rule="evenodd"/><path d="M143.901 256.113 320.667 256.113" stroke="#FFFFFF" stroke-width="1.33333" stroke-linejoin="round" stroke-miterlimit="10" fill="none" fill-rule="evenodd"/><path d="M143.901 288.548 320.667 288.548" stroke="#FFFFFF" stroke-width="1.33333" stroke-linejoin="round" stroke-miterlimit="10" fill="none" fill-rule="evenodd"/><path d="M143.901 320.983 320.667 320.983" stroke="#FFFFFF" stroke-width="1.33333" stroke-linejoin="round" stroke-miterlimit="10" fill="none" fill-rule="evenodd"/><path d="M143.901 353.418 320.667 353.418" stroke="#FFFFFF" stroke-width="1.33333" stroke-linejoin="round" stroke-miterlimit="10" fill="none" fill-rule="evenodd"/><path d="M143.901 385.853 320.667 385.853" stroke="#FFFFFF" stroke-width="1.33333" stroke-linejoin="round" stroke-miterlimit="10" fill="none" fill-rule="evenodd"/><path d="M143.901 418.288 320.667 418.288" stroke="#FFFFFF" stroke-width="1.33333" stroke-linejoin="round" stroke-miterlimit="10" fill="none" fill-rule="evenodd"/><path d="M144.567 93.2718 144.567 451.39" stroke="#FFFFFF" stroke-width="1.33333" stroke-linejoin="round" stroke-miterlimit="10" fill="none" fill-rule="evenodd"/><path d="M320 93.2718 320 451.39" stroke="#FFFFFF" stroke-width="1.33333" stroke-linejoin="round" stroke-miterlimit="10" fill="none" fill-rule="evenodd"/><path d="M143.901 93.9385 320.667 93.9385" stroke="#FFFFFF" stroke-width="1.33333" stroke-linejoin="round" stroke-miterlimit="10" fill="none" fill-rule="evenodd"/><path d="M143.901 450.723 320.667 450.723" stroke="#FFFFFF" stroke-width="1.33333" stroke-linejoin="round" stroke-miterlimit="10" fill="none" fill-rule="evenodd"/><g clip-path="url(#clip1)"><text fill="#FFFFFF" font-family="DengXian,DengXian_MSFontService,sans-serif" font-weight="700" font-size="19" transform="translate(154.167 116)">ID</text></g><g clip-path="url(#clip2)"><text font-family="DengXian,DengXian_MSFontService,sans-serif" font-weight="400" font-size="19" transform="translate(154.167 148)">HMDB0000001</text></g><g clip-path="url(#clip3)"><text font-family="DengXian,DengXian_MSFontService,sans-serif" font-weight="400" font-size="19" transform="translate(154.167 181)">HMDB0000002</text></g><g clip-path="url(#clip4)"><text font-family="DengXian,DengXian_MSFontService,sans-serif" font-weight="400" font-size="19" transform="translate(154.167 213)">HMDB0000005</text></g><g clip-path="url(#clip5)"><text font-family="DengXian,DengXian_MSFontService,sans-serif" font-weight="400" font-size="19" transform="translate(154.167 245)">HMDB0000008</text></g><g clip-path="url(#clip6)"><text font-family="DengXian,DengXian_MSFontService,sans-serif" font-weight="400" font-size="19" transform="translate(154.167 278)">HMDB0000010</text></g><g clip-path="url(#clip7)"><text font-family="DengXian,DengXian_MSFontService,sans-serif" font-weight="400" font-size="19" transform="translate(154.167 310)">HMDB0000011</text></g><g clip-path="url(#clip8)"><text font-family="DengXian,DengXian_MSFontService,sans-serif" font-weight="400" font-size="19" transform="translate(154.167 343)">HMDB0000012</text></g><g clip-path="url(#clip9)"><text font-family="DengXian,DengXian_MSFontService,sans-serif" font-weight="400" font-size="19" transform="translate(154.167 375)">HMDB0000014</text></g><g clip-path="url(#clip10)"><text font-family="DengXian,DengXian_MSFontService,sans-serif" font-weight="400" font-size="19" transform="translate(154.167 408)">HMDB0000015</text></g><g clip-path="url(#clip11)"><text font-family="DengXian,DengXian_MSFontService,sans-serif" font-weight="400" font-size="19" transform="translate(154.167 440)">…</text></g></g></svg>