<svg width="256" height="256" viewBox="0 0 256 256" xmlns="http://www.w3.org/2000/svg" xmlns:xlink="http://www.w3.org/1999/xlink" id="svg2" overflow="hidden"><defs></defs><defs id="defs6"></defs><g transform="matrix(1.37143 0 0 1.37143 -9.58291 -10.3073)"><g id="g10" transform="matrix(1.33333 0 0 -1.33333 0 200)"><g id="g12" transform="scale(0.1 0.1)"><path d="M263.262 1244.96C259.086 1226.93 256.781 1208.15 256.781 1188.82 256.781 1051.94 367.75 941.016 504.586 941.016 641.418 941.016 752.383 1051.94 752.383 1188.82L420.328 1188.82C360.664 1188.82 306.023 1209.85 263.262 1244.96Z" id="path14" fill="#E0DEDE"/><path d="M1241.55 1244.96C1245.73 1226.93 1247.98 1208.15 1247.98 1188.82 1247.98 1051.94 1137.06 941.016 1000.19 941.016 863.301 941.016 752.383 1051.94 752.383 1188.82L1084.44 1188.82C1144.05 1188.82 1198.79 1209.85 1241.55 1244.96Z" id="path16" fill="#E0DEDE"/><path d="M1084.44 864.828 420.328 864.828 420.328 1188.82 1084.44 1188.82 1084.44 864.828Z" id="path18" fill="#E0DEDE"/><path d="M460.133 864.828C388.074 791.133 343.578 690.359 343.578 579.148 343.578 353.371 526.598 170.352 752.383 170.352 978.164 170.352 1161.19 353.371 1161.19 579.148 1161.19 690.359 1116.74 791.133 1044.69 864.828L460.133 864.828Z" id="path20" fill="#3E485B"/><path d="M1003.05 420.969C1003.05 282.539 890.813 170.352 752.383 170.352 613.953 170.352 501.723 282.539 501.723 420.969 501.723 559.387 613.953 671.621 752.383 671.621 890.813 671.621 1003.05 559.387 1003.05 420.969Z" id="path22" fill="#FFFFFF"/><path d="M752.383 543.523 640.383 655.527 752.383 864.828 864.387 655.527 752.383 543.523Z" id="path24" fill="#EEC96B"/><path d="M1374.01 1080.43 1413.21 1080.43 1413.21 1311.29 1374.01 1311.29 1374.01 1080.43Z" id="path26" fill="#3E485B"/><path d="M1032.38 1311.29 472.383 1311.29 472.383 1188.82 752.383 1108.45 1032.38 1188.82 1032.38 1311.29Z" id="path28" fill="#343948"/><path d="M752.383 1357.99 52.4063 1357.99 52.4063 1311.29 752.383 1311.29 752.383 1357.99Z" id="path30" fill="#3E485B"/><path d="M1452.4 1357.99 752.383 1357.99 752.383 1311.29 1452.4 1311.29 1452.4 1357.99Z" id="path32" fill="#292C35"/><path d="M924.609 908.207 860.203 908.207C860.203 967.633 811.809 1016.02 752.383 1016.02 692.961 1016.02 644.609 967.633 644.609 908.207L580.16 908.207C580.16 1003.17 657.422 1080.43 752.383 1080.43 847.344 1080.43 924.609 1003.17 924.609 908.207Z" id="path34" fill="#343948"/><path d="M752.383 864.828C752.383 710.203 627.051 584.785 472.383 584.785 317.758 584.785 192.383 710.203 192.383 864.828 192.383 1019.45 317.758 1144.79 472.383 1144.79 627.051 1144.79 752.383 1019.45 752.383 864.828Z" id="path36" fill="#343948"/><path d="M687.984 864.828C687.984 745.746 591.469 649.188 472.383 649.188 353.34 649.188 256.781 745.746 256.781 864.828 256.781 983.871 353.34 1080.43 472.383 1080.43 591.469 1080.43 687.984 983.871 687.984 864.828Z" id="path38" fill="#FFFFFF"/><path d="M1312.38 864.828C1312.38 710.203 1187.05 584.785 1032.38 584.785 877.766 584.785 752.383 710.203 752.383 864.828 752.383 1019.45 877.766 1144.79 1032.38 1144.79 1187.05 1144.79 1312.38 1019.45 1312.38 864.828Z" id="path40" fill="#343948"/><path d="M1247.98 864.828C1247.98 745.746 1151.46 649.188 1032.38 649.188 913.34 649.188 816.785 745.746 816.785 864.828 816.785 983.871 913.34 1080.43 1032.38 1080.43 1151.46 1080.43 1247.98 983.871 1247.98 864.828Z" id="path42" fill="#FFFFFF"/><path d="M612.457 864.828C612.457 787.477 549.742 724.766 472.383 724.766 395.211 724.766 332.457 787.477 332.457 864.828 332.457 942.004 395.211 1004.77 472.383 1004.77 549.742 1004.77 612.457 942.004 612.457 864.828Z" id="path44" fill="#EEC96B"/><path d="M537.113 864.828C537.113 829.109 508.148 800.102 472.383 800.102 436.617 800.102 407.602 829.109 407.602 864.828 407.602 900.602 436.617 929.609 472.383 929.609 508.148 929.609 537.113 900.602 537.113 864.828Z" id="path46" fill="#3E485B"/><path d="M459.332 906C459.332 890.461 446.754 877.883 431.223 877.883 415.863 877.883 403.285 890.461 403.285 906 403.285 921.348 415.863 933.926 431.223 933.926 446.754 933.926 459.332 921.348 459.332 906Z" id="path48" fill="#FFFFFF"/><path d="M1172.5 864.828C1172.5 787.477 1109.79 724.766 1032.38 724.766 955.215 724.766 892.5 787.477 892.5 864.828 892.5 942.004 955.215 1004.77 1032.38 1004.77 1109.79 1004.77 1172.5 942.004 1172.5 864.828Z" id="path50" fill="#EEC96B"/><path d="M1097.16 864.828C1097.16 829.109 1068.15 800.102 1032.38 800.102 996.66 800.102 967.645 829.109 967.645 864.828 967.645 900.602 996.66 929.609 1032.38 929.609 1068.15 929.609 1097.16 900.602 1097.16 864.828Z" id="path52" fill="#3E485B"/><path d="M1019.38 906C1019.38 890.461 1006.8 877.883 991.262 877.883 975.867 877.883 963.293 890.461 963.293 906 963.293 921.348 975.867 933.926 991.262 933.926 1006.8 933.926 1019.38 921.348 1019.38 906Z" id="path54" fill="#FFFFFF"/><path d="M158.961 211.43 158.961 252.398 1345.75 252.398 1345.75 211.43 158.961 211.43Z" id="path56" fill="#EEC96B"/><path d="M158.961 170.352 158.961 211.43 1345.75 211.43 1345.75 170.352 158.961 170.352Z" id="path58" fill="#EBB755"/><path d="M158.961 129.281 158.961 170.352 1345.75 170.352 1345.75 129.281 158.961 129.281Z" id="path60" fill="#E8A540"/><path d="M159.008 129.281 87.8477 170.352 87.8477 211.379 158.961 252.352 159.008 129.281Z" id="path62" fill="#EBEAE9"/><path d="M159.008 129.281 158.961 170.352 87.8477 184.102 87.8477 170.352 159.008 129.281Z" id="path64" fill="#C3C2C2"/><path d="M87.8477 170.352 52.4063 190.91 87.8477 211.379 87.8477 170.352Z" id="path66" fill="#3E485B"/><path d="M1381.29 129.281 1381.29 170.352 1345.75 170.352 1345.75 129.281 1381.29 129.281Z" id="path68" fill="#C3C2C2"/><path d="M1381.29 170.352 1381.29 252.398 1345.75 252.398 1345.75 170.352 1381.29 170.352Z" id="path70" fill="#EBEAE9"/><path d="M1390.87 129.328 1381.29 129.328 1381.29 170.352 1390.87 170.398C1406.54 170.398 1422.36 176.359 1434.38 188.328 1441.04 195.18 1445.98 203.02 1448.84 211.43 1451.18 204.762 1452.4 197.898 1452.4 190.91 1452.4 175.09 1446.35 159.41 1434.38 147.301 1422.36 135.281 1406.54 129.371 1390.87 129.328Z" id="path72" fill="#292C35"/><path d="M1390.87 170.398 1381.29 170.352 1381.29 252.449 1390.87 252.449C1406.54 252.449 1422.36 246.391 1434.38 234.422 1441.04 227.75 1445.88 219.82 1448.84 211.43 1445.98 203.02 1441.04 195.18 1434.38 188.328 1422.36 176.359 1406.54 170.398 1390.87 170.398Z" id="path74" fill="#3E485B"/><path d="M895.93 154.43C895.93 140.602 884.57 129.281 870.723 129.281 856.875 129.281 845.52 140.602 845.52 154.43L845.52 252.398C845.52 266.25 856.875 277.609 870.723 277.609 884.57 277.609 895.93 266.25 895.93 252.398L895.93 154.43Z" id="path76" fill="#3E485B"/><path d="M946.301 154.43C946.301 140.602 934.98 129.281 921.133 129.281 907.234 129.281 895.93 140.602 895.93 154.43L895.93 252.398C895.93 266.25 907.234 277.609 921.133 277.609 934.98 277.609 946.301 266.25 946.301 252.398L946.301 154.43Z" id="path78" fill="#3E485B"/><path d="M996.711 154.43C996.711 140.602 985.398 129.281 971.555 129.281 957.656 129.281 946.301 140.602 946.301 154.43L946.301 252.398C946.301 266.25 957.656 277.609 971.555 277.609 985.398 277.609 996.711 266.25 996.711 252.398L996.711 154.43Z" id="path80" fill="#3E485B"/><path d="M558.473 154.43C558.473 140.602 547.113 129.281 533.266 129.281 519.418 129.281 508.059 140.602 508.059 154.43L508.059 252.398C508.059 266.25 519.418 277.609 533.266 277.609 547.113 277.609 558.473 266.25 558.473 252.398L558.473 154.43Z" id="path82" fill="#3E485B"/><path d="M608.844 154.43C608.844 140.602 597.523 129.281 583.633 129.281 569.785 129.281 558.473 140.602 558.473 154.43L558.473 252.398C558.473 266.25 569.785 277.609 583.633 277.609 597.523 277.609 608.844 266.25 608.844 252.398L608.844 154.43Z" id="path84" fill="#3E485B"/><path d="M659.254 154.43C659.254 140.602 647.938 129.281 634.098 129.281 620.199 129.281 608.844 140.602 608.844 154.43L608.844 252.398C608.844 266.25 620.199 277.609 634.098 277.609 647.938 277.609 659.254 266.25 659.254 252.398L659.254 154.43Z" id="path86" fill="#3E485B"/></g></g></g></svg>