<svg width="256" height="256" viewBox="0 0 256 256" xmlns="http://www.w3.org/2000/svg" xmlns:xlink="http://www.w3.org/1999/xlink" overflow="hidden"><defs></defs><defs><clipPath id="clip1"><path d="M0 0 59.5 0 59.5 59.1289 0 59.1289 0 0"/></clipPath><clipPath id="clip2"><path d="M0 2 59.5 2 59.5 59.1289 0 59.1289 0 2"/></clipPath><clipPath id="clip3"><path d="M0 7 59.5 7 59.5 59.1289 0 59.1289 0 7"/></clipPath><clipPath id="clip4"><path d="M0 12 59.5 12 59.5 59.1289 0 59.1289 0 12"/></clipPath><clipPath id="clip5"><path d="M0 0 59.5 0 59.5 59.1289 0 59.1289 0 0"/></clipPath><clipPath id="clip6"><path d="M0 0 59.5 0 59.5 51 0 51 0 0"/></clipPath><clipPath id="clip7"><path d="M0 0 59.5 0 59.5 34 0 34 0 0"/></clipPath><clipPath id="clip8"><path d="M0 3 59.5 3 59.5 59.1289 0 59.1289 0 3"/></clipPath><clipPath id="clip9"><path d="M15 0 59.5 0 59.5 59 15 59 15 0"/></clipPath></defs><g transform="matrix(4.30252 0 0 4.30252 0 1.3014)"><g id="surface1"><path d="M22 4.50391C9.85156 4.50391 0 14.3516 0 26.5039 0 31.5156 1.67969 36.1328 4.5 39.832L4.5 29.0039 38.9805 12.5117C34.9453 7.62109 28.8359 4.50391 22 4.50391Z" fill="#E3E3E4"/><g clip-path="url(#clip1)"><path d="M105 331.261 45 301.261 45 291.261 295 161.261 585 311.261 585 320.948 505 361.261" stroke="#385085" stroke-width="20" stroke-miterlimit="10" fill="none" transform="matrix(0.1 0 0 -0.1 0 59.13)"/></g><g clip-path="url(#clip2)"><path d="M45 261.261 45 241.261 295 111.261 585 261.339 585 281.261" stroke="#385085" stroke-width="20" stroke-miterlimit="10" fill="none" transform="matrix(0.1 0 0 -0.1 0 59.13)"/></g><g clip-path="url(#clip3)"><path d="M45 211.261 45 191.261 295 61.2609 585 211.261 585 231.261" stroke="#385085" stroke-width="20" stroke-miterlimit="10" fill="none" transform="matrix(0.1 0 0 -0.1 0 59.13)"/></g><g clip-path="url(#clip4)"><path d="M45 161.261 45 141.261 295 11.2609 585 161.261 585 181.261" stroke="#385085" stroke-width="20" stroke-miterlimit="10" fill="none" transform="matrix(0.1 0 0 -0.1 0 59.13)"/></g><path d="M42.5 21.0039 42.5 16.0039 39.1563 16.0039C38.9453 15.0039 38.6367 14.4531 38.2422 13.7656L40.6055 11.3906 37.0703 7.84766 34.707 10.207C34.0234 9.8125 33.5 9.50391 32.5 9.28906L32.5 6.00391 27.5 6.00391 27.5 9.28906C26.5 9.50391 25.9766 9.80859 25.293 10.2031L22.9297 7.83984 19.3945 11.375 21.7578 13.7656C21.3633 14.4531 21.0547 15.0039 20.8438 16.0039L17.5 16.0039 17.5 21.0039 20.8438 21.0039C21.0547 22.0039 21.3633 22.4961 21.7578 23.1836L19.3945 25.5313 22.9297 29.0625 25.293 26.6953C25.9766 27.0898 26.5 27.3906 27.5 27.6055L27.5 31.0039 32.5 31.0039 32.5 27.6055C33.5 27.3906 34.0234 27.0859 34.707 26.6914L37.0703 29.0547 40.6055 25.5195 38.2422 23.1836C38.6367 22.4961 38.9453 22.0039 39.1563 21.0039L42.5 21.0039Z" fill="#9BCCEF"/><g clip-path="url(#clip5)"><path d="M425 381.261 425 431.261 391.563 431.261C389.453 441.261 386.367 446.769 382.422 453.644L406.055 477.394 370.703 512.823 347.07 489.23C340.234 493.175 335 496.261 325 498.409L325 531.261 275 531.261 275 498.409C265 496.261 259.766 493.214 252.93 489.269L229.297 512.902 193.945 477.55 217.578 453.644C213.633 446.769 210.547 441.261 208.438 431.261L175 431.261 175 381.261 208.438 381.261C210.547 371.261 213.633 366.339 217.578 359.464L193.945 335.988 229.297 300.675 252.93 324.347C259.766 320.402 265 317.394 275 315.245L275 281.261 325 281.261 325 315.245C335 317.394 340.234 320.441 347.07 324.386L370.703 300.753 406.055 336.105 382.422 359.464C386.367 366.339 389.453 371.261 391.563 381.261L425 381.261" stroke="#385085" stroke-width="20" stroke-miterlimit="10" fill="none" transform="matrix(0.1 0 0 -0.1 0 59.13)"/></g><path d="M33.5 18.5039C33.5 20.4375 31.9336 22.0039 30 22.0039 28.0664 22.0039 26.5 20.4375 26.5 18.5039 26.5 16.5703 28.0664 15.0039 30 15.0039 31.9336 15.0039 33.5 16.5703 33.5 18.5039Z" fill="#FEFEFE"/><g clip-path="url(#clip6)"><path d="M335 406.261C335 386.925 319.336 371.261 300 371.261 280.664 371.261 265 386.925 265 406.261 265 425.597 280.664 441.261 300 441.261 319.336 441.261 335 425.597 335 406.261" stroke="#385085" stroke-width="20" stroke-miterlimit="10" fill="none" transform="matrix(0.1 0 0 -0.1 0 59.13)"/></g><g clip-path="url(#clip7)"><path d="M187.305 540.167C252.266 594.972 347.734 594.972 412.695 540.167" stroke="#385085" stroke-width="20" stroke-miterlimit="10" fill="none" transform="matrix(0.1 0 0 -0.1 0 59.13)"/></g><path d="M166.094 293.605C111.289 358.566 111.289 453.995 166.094 518.956" stroke="#385085" stroke-width="20" stroke-miterlimit="10" fill="none" transform="matrix(0.1 0 0 -0.1 0 59.13)"/><g clip-path="url(#clip8)"><path d="M412.695 272.355C347.734 217.55 252.266 217.55 187.305 272.355" stroke="#385085" stroke-width="20" stroke-miterlimit="10" fill="none" transform="matrix(0.1 0 0 -0.1 0 59.13)"/></g><g clip-path="url(#clip9)"><path d="M433.906 518.956C488.711 453.995 488.711 358.527 433.906 293.566" stroke="#385085" stroke-width="20" stroke-miterlimit="10" fill="none" transform="matrix(0.1 0 0 -0.1 0 59.13)"/></g></g></g></svg>