<svg width="202" height="120" xmlns="http://www.w3.org/2000/svg" xmlns:xlink="http://www.w3.org/1999/xlink" overflow="hidden"><g transform="translate(-223 -267)"><path d="M224.432 268.541 323.676 268.541 323.676 295.428 224.432 295.428Z" fill="#4472C4" fill-rule="evenodd"/><path d="M323.676 268.541 422.919 268.541 422.919 295.428 323.676 295.428Z" fill="#4472C4" fill-rule="evenodd"/><path d="M224.432 295.428 323.676 295.428 323.676 316.425 224.432 316.425Z" fill="#E9EBF5" fill-rule="evenodd"/><path d="M323.676 295.428 422.919 295.428 422.919 316.425 323.676 316.425Z" fill="#E9EBF5" fill-rule="evenodd"/><path d="M224.432 316.425 323.676 316.425 323.676 337.422 224.432 337.422Z" fill="#E9EBF5" fill-rule="evenodd"/><path d="M323.676 316.425 422.919 316.425 422.919 337.422 323.676 337.422Z" fill="#E9EBF5" fill-rule="evenodd"/><path d="M224.432 337.422 323.676 337.422 323.676 358.419 224.432 358.419Z" fill="#E9EBF5" fill-rule="evenodd"/><path d="M323.676 337.422 422.919 337.422 422.919 358.419 323.676 358.419Z" fill="#E9EBF5" fill-rule="evenodd"/><path d="M224.432 358.419 323.676 358.419 323.676 379.416 224.432 379.416Z" fill="#E9EBF5" fill-rule="evenodd"/><path d="M323.676 358.419 422.919 358.419 422.919 379.416 323.676 379.416Z" fill="#E9EBF5" fill-rule="evenodd"/><path d="M323.676 267.874 323.676 380.083" stroke="#FFFFFF" stroke-width="1.33333" stroke-linejoin="round" stroke-miterlimit="10" fill="none" fill-rule="evenodd"/><path d="M223.766 295.428 423.586 295.428" stroke="#FFFFFF" stroke-width="1.33333" stroke-linejoin="round" stroke-miterlimit="10" fill="none" fill-rule="evenodd"/><path d="M223.766 316.425 423.586 316.425" stroke="#FFFFFF" stroke-width="1.33333" stroke-linejoin="round" stroke-miterlimit="10" fill="none" fill-rule="evenodd"/><path d="M223.766 337.422 423.586 337.422" stroke="#FFFFFF" stroke-width="1.33333" stroke-linejoin="round" stroke-miterlimit="10" fill="none" fill-rule="evenodd"/><path d="M223.766 358.419 423.586 358.419" stroke="#FFFFFF" stroke-width="1.33333" stroke-linejoin="round" stroke-miterlimit="10" fill="none" fill-rule="evenodd"/><path d="M224.432 267.874 224.432 380.083" stroke="#FFFFFF" stroke-width="1.33333" stroke-linejoin="round" stroke-miterlimit="10" fill="none" fill-rule="evenodd"/><path d="M422.919 267.874 422.919 380.083" stroke="#FFFFFF" stroke-width="1.33333" stroke-linejoin="round" stroke-miterlimit="10" fill="none" fill-rule="evenodd"/><path d="M223.766 268.541 423.586 268.541" stroke="#FFFFFF" stroke-width="1.33333" stroke-linejoin="round" stroke-miterlimit="10" fill="none" fill-rule="evenodd"/><path d="M223.766 379.416 423.586 379.416" stroke="#FFFFFF" stroke-width="1.33333" stroke-linejoin="round" stroke-miterlimit="10" fill="none" fill-rule="evenodd"/><g><text fill="#FFFFFF" font-family="DengXian,DengXian_MSFontService,sans-serif" font-weight="700" font-size="14" transform="translate(331.235 287)">group</text></g><g><text fill="#FFFFFF" font-family="DengXian,DengXian_MSFontService,sans-serif" font-weight="700" font-size="14" transform="translate(231.991 286)">sample</text></g><g><text font-family="DengXian,DengXian_MSFontService,sans-serif" font-weight="400" font-size="14" transform="translate(331.235 311)">Test</text></g><g><text font-family="DengXian,DengXian_MSFontService,sans-serif" font-weight="400" font-size="13" transform="translate(231.991 310)">Test</text></g><text font-family="DengXian,DengXian_MSFontService,sans-serif" font-weight="400" font-size="13" transform="translate(255.325 310)">-</text><text font-family="DengXian,DengXian_MSFontService,sans-serif" font-weight="400" font-size="13" transform="translate(261.991 310)">1</text><g><text font-family="DengXian,DengXian_MSFontService,sans-serif" font-weight="400" font-size="14" transform="translate(331.235 332)">Test</text></g><g><text font-family="DengXian,DengXian_MSFontService,sans-serif" font-weight="400" font-size="13" transform="translate(231.991 331)">Test</text></g><text font-family="DengXian,DengXian_MSFontService,sans-serif" font-weight="400" font-size="13" transform="translate(255.325 331)">-</text><text font-family="DengXian,DengXian_MSFontService,sans-serif" font-weight="400" font-size="13" transform="translate(261.991 331)">2</text><g><text font-family="DengXian,DengXian_MSFontService,sans-serif" font-weight="400" font-size="14" transform="translate(331.235 353)">QC</text></g><g><text font-family="DengXian,DengXian_MSFontService,sans-serif" font-weight="400" font-size="13" transform="translate(231.991 352)">QC</text></g><text font-family="DengXian,DengXian_MSFontService,sans-serif" font-weight="400" font-size="13" transform="translate(250.491 352)">-</text><text font-family="DengXian,DengXian_MSFontService,sans-serif" font-weight="400" font-size="13" transform="translate(257.158 352)">1</text><g><text font-family="DengXian,DengXian_MSFontService,sans-serif" font-weight="400" font-size="14" transform="translate(331.235 374)">QC</text></g><g><text font-family="DengXian,DengXian_MSFontService,sans-serif" font-weight="400" font-size="13" transform="translate(231.991 373)">QC</text></g><text font-family="DengXian,DengXian_MSFontService,sans-serif" font-weight="400" font-size="13" transform="translate(250.491 373)">-</text><text font-family="DengXian,DengXian_MSFontService,sans-serif" font-weight="400" font-size="13" transform="translate(257.158 373)">1</text></g></svg>