<svg width="323" height="140" xmlns="http://www.w3.org/2000/svg" xmlns:xlink="http://www.w3.org/1999/xlink" overflow="hidden"><g transform="translate(-223 -421)"><path d="M224.432 422.054 428.108 422.054 428.108 448.942 224.432 448.942Z" fill="#4472C4" fill-rule="evenodd"/><path d="M428.108 422.054 544.216 422.054 544.216 448.942 428.108 448.942Z" fill="#4472C4" fill-rule="evenodd"/><path d="M224.432 448.942 428.108 448.942 428.108 469.938 224.432 469.938Z" fill="#E9EBF5" fill-rule="evenodd"/><path d="M428.108 448.942 544.216 448.942 544.216 469.938 428.108 469.938Z" fill="#E9EBF5" fill-rule="evenodd"/><path d="M224.432 469.938 428.108 469.938 428.108 490.935 224.432 490.935Z" fill="#E9EBF5" fill-rule="evenodd"/><path d="M428.108 469.938 544.216 469.938 544.216 490.935 428.108 490.935Z" fill="#E9EBF5" fill-rule="evenodd"/><path d="M224.432 490.935 428.108 490.935 428.108 511.932 224.432 511.932Z" fill="#E9EBF5" fill-rule="evenodd"/><path d="M428.108 490.935 544.216 490.935 544.216 511.932 428.108 511.932Z" fill="#E9EBF5" fill-rule="evenodd"/><path d="M224.432 511.932 428.108 511.932 428.108 532.929 224.432 532.929Z" fill="#E9EBF5" fill-rule="evenodd"/><path d="M428.108 511.932 544.216 511.932 544.216 532.929 428.108 532.929Z" fill="#E9EBF5" fill-rule="evenodd"/><path d="M224.432 532.929 428.108 532.929 428.108 553.926 224.432 553.926Z" fill="#E9EBF5" fill-rule="evenodd"/><path d="M428.108 532.929 544.216 532.929 544.216 553.926 428.108 553.926Z" fill="#E9EBF5" fill-rule="evenodd"/><path d="M428.108 421.387 428.108 554.593" stroke="#FFFFFF" stroke-width="1.33333" stroke-linejoin="round" stroke-miterlimit="10" fill="none" fill-rule="evenodd"/><path d="M223.766 448.942 544.883 448.942" stroke="#FFFFFF" stroke-width="1.33333" stroke-linejoin="round" stroke-miterlimit="10" fill="none" fill-rule="evenodd"/><path d="M223.766 469.938 544.883 469.938" stroke="#FFFFFF" stroke-width="1.33333" stroke-linejoin="round" stroke-miterlimit="10" fill="none" fill-rule="evenodd"/><path d="M223.766 490.935 544.883 490.935" stroke="#FFFFFF" stroke-width="1.33333" stroke-linejoin="round" stroke-miterlimit="10" fill="none" fill-rule="evenodd"/><path d="M223.766 511.932 544.883 511.932" stroke="#FFFFFF" stroke-width="1.33333" stroke-linejoin="round" stroke-miterlimit="10" fill="none" fill-rule="evenodd"/><path d="M223.766 532.929 544.883 532.929" stroke="#FFFFFF" stroke-width="1.33333" stroke-linejoin="round" stroke-miterlimit="10" fill="none" fill-rule="evenodd"/><path d="M224.432 421.387 224.432 554.593" stroke="#FFFFFF" stroke-width="1.33333" stroke-linejoin="round" stroke-miterlimit="10" fill="none" fill-rule="evenodd"/><path d="M544.216 421.387 544.216 554.593" stroke="#FFFFFF" stroke-width="1.33333" stroke-linejoin="round" stroke-miterlimit="10" fill="none" fill-rule="evenodd"/><path d="M223.766 422.054 544.883 422.054" stroke="#FFFFFF" stroke-width="1.33333" stroke-linejoin="round" stroke-miterlimit="10" fill="none" fill-rule="evenodd"/><path d="M223.766 553.926 544.883 553.926" stroke="#FFFFFF" stroke-width="1.33333" stroke-linejoin="round" stroke-miterlimit="10" fill="none" fill-rule="evenodd"/><g><text fill="#FFFFFF" font-family="DengXian,DengXian_MSFontService,sans-serif" font-weight="700" font-size="14" transform="translate(435.667 440)">class</text></g><g><text fill="#FFFFFF" font-family="DengXian,DengXian_MSFontService,sans-serif" font-weight="700" font-size="14" transform="translate(231.991 439)">Metabolite</text></g><g><text font-family="DengXian,DengXian_MSFontService,sans-serif" font-weight="400" font-size="14" transform="translate(435.667 464)">Amino acid</text></g><g><text font-family="DengXian,DengXian_MSFontService,sans-serif" font-weight="400" font-size="13" transform="translate(231.991 463)">5</text></g><text font-family="DengXian,DengXian_MSFontService,sans-serif" font-weight="400" font-size="13" transform="translate(238.991 463)">-</text><text font-family="DengXian,DengXian_MSFontService,sans-serif" font-weight="400" font-size="13" transform="translate(245.658 463)">L</text><text font-family="DengXian,DengXian_MSFontService,sans-serif" font-weight="400" font-size="13" transform="translate(251.825 463)">-</text><text font-family="DengXian,DengXian_MSFontService,sans-serif" font-weight="400" font-size="13" transform="translate(258.491 463)">Glutamyl</text><text font-family="DengXian,DengXian_MSFontService,sans-serif" font-weight="400" font-size="13" transform="translate(308.991 463)">-</text><text font-family="DengXian,DengXian_MSFontService,sans-serif" font-weight="400" font-size="13" transform="translate(315.658 463)">taurine</text><g><text font-family="DengXian,DengXian_MSFontService,sans-serif" font-weight="400" font-size="14" transform="translate(435.667 485)">Amino acid</text></g><g><text font-family="DengXian,DengXian_MSFontService,sans-serif" font-weight="400" font-size="13" transform="translate(231.991 484)">ADMA + SDMA</text></g><g><text font-family="DengXian,DengXian_MSFontService,sans-serif" font-weight="400" font-size="14" transform="translate(435.667 506)">Amino acid</text></g><g><text font-family="DengXian,DengXian_MSFontService,sans-serif" font-weight="400" font-size="13" transform="translate(231.991 505)">Methionine sulfoxide</text></g><g><text font-family="DengXian,DengXian_MSFontService,sans-serif" font-weight="400" font-size="14" transform="translate(435.667 527)">Fatty acid</text></g><g><text font-family="DengXian,DengXian_MSFontService,sans-serif" font-weight="400" font-size="13" transform="translate(231.991 526)">N</text></g><text font-family="DengXian,DengXian_MSFontService,sans-serif" font-weight="400" font-size="13" transform="translate(241.658 526)">-</text><text font-family="DengXian,DengXian_MSFontService,sans-serif" font-weight="400" font-size="13" transform="translate(248.325 526)">Acetyl</text><text font-family="DengXian,DengXian_MSFontService,sans-serif" font-weight="400" font-size="13" transform="translate(282.991 526)">-</text><text font-family="DengXian,DengXian_MSFontService,sans-serif" font-weight="400" font-size="13" transform="translate(289.658 526)">L</text><text font-family="DengXian,DengXian_MSFontService,sans-serif" font-weight="400" font-size="13" transform="translate(295.825 526)">-</text><text font-family="DengXian,DengXian_MSFontService,sans-serif" font-weight="400" font-size="13" transform="translate(302.491 526)">phenylalanine</text><g><text font-family="DengXian,DengXian_MSFontService,sans-serif" font-weight="400" font-size="14" transform="translate(435.667 548)">Fatty acid</text></g><g><text font-family="DengXian,DengXian_MSFontService,sans-serif" font-weight="400" font-size="13" transform="translate(231.991 547)">methionine</text></g></g></svg>