<svg width="543" height="140" xmlns="http://www.w3.org/2000/svg" xmlns:xlink="http://www.w3.org/1999/xlink" overflow="hidden"><g transform="translate(-223 -79)"><path d="M224.432 80.4324 417.73 80.4324 417.73 107.32 224.432 107.32Z" fill="#4472C4" fill-rule="evenodd"/><path d="M417.73 80.4324 504.324 80.4324 504.324 107.32 417.73 107.32Z" fill="#4472C4" fill-rule="evenodd"/><path d="M504.324 80.4324 590.919 80.4324 590.919 107.32 504.324 107.32Z" fill="#4472C4" fill-rule="evenodd"/><path d="M590.919 80.4324 677.514 80.4324 677.514 107.32 590.919 107.32Z" fill="#4472C4" fill-rule="evenodd"/><path d="M677.514 80.4324 764.108 80.4324 764.108 107.32 677.514 107.32Z" fill="#4472C4" fill-rule="evenodd"/><path d="M224.432 107.32 417.73 107.32 417.73 128.317 224.432 128.317Z" fill="#E9EBF5" fill-rule="evenodd"/><path d="M417.73 107.32 504.324 107.32 504.324 128.317 417.73 128.317Z" fill="#E9EBF5" fill-rule="evenodd"/><path d="M504.324 107.32 590.919 107.32 590.919 128.317 504.324 128.317Z" fill="#E9EBF5" fill-rule="evenodd"/><path d="M590.919 107.32 677.514 107.32 677.514 128.317 590.919 128.317Z" fill="#E9EBF5" fill-rule="evenodd"/><path d="M677.514 107.32 764.108 107.32 764.108 128.317 677.514 128.317Z" fill="#E9EBF5" fill-rule="evenodd"/><path d="M224.432 128.317 417.73 128.317 417.73 149.314 224.432 149.314Z" fill="#E9EBF5" fill-rule="evenodd"/><path d="M417.73 128.317 504.324 128.317 504.324 149.314 417.73 149.314Z" fill="#E9EBF5" fill-rule="evenodd"/><path d="M504.324 128.317 590.919 128.317 590.919 149.314 504.324 149.314Z" fill="#E9EBF5" fill-rule="evenodd"/><path d="M590.919 128.317 677.514 128.317 677.514 149.314 590.919 149.314Z" fill="#E9EBF5" fill-rule="evenodd"/><path d="M677.514 128.317 764.108 128.317 764.108 149.314 677.514 149.314Z" fill="#E9EBF5" fill-rule="evenodd"/><path d="M224.432 149.314 417.73 149.314 417.73 170.311 224.432 170.311Z" fill="#E9EBF5" fill-rule="evenodd"/><path d="M417.73 149.314 504.324 149.314 504.324 170.311 417.73 170.311Z" fill="#E9EBF5" fill-rule="evenodd"/><path d="M504.324 149.314 590.919 149.314 590.919 170.311 504.324 170.311Z" fill="#E9EBF5" fill-rule="evenodd"/><path d="M590.919 149.314 677.514 149.314 677.514 170.311 590.919 170.311Z" fill="#E9EBF5" fill-rule="evenodd"/><path d="M677.514 149.314 764.108 149.314 764.108 170.311 677.514 170.311Z" fill="#E9EBF5" fill-rule="evenodd"/><path d="M224.432 170.311 417.73 170.311 417.73 191.308 224.432 191.308Z" fill="#E9EBF5" fill-rule="evenodd"/><path d="M417.73 170.311 504.324 170.311 504.324 191.308 417.73 191.308Z" fill="#E9EBF5" fill-rule="evenodd"/><path d="M504.324 170.311 590.919 170.311 590.919 191.308 504.324 191.308Z" fill="#E9EBF5" fill-rule="evenodd"/><path d="M590.919 170.311 677.514 170.311 677.514 191.308 590.919 191.308Z" fill="#E9EBF5" fill-rule="evenodd"/><path d="M677.514 170.311 764.108 170.311 764.108 191.308 677.514 191.308Z" fill="#E9EBF5" fill-rule="evenodd"/><path d="M224.432 191.308 417.73 191.308 417.73 212.305 224.432 212.305Z" fill="#E9EBF5" fill-rule="evenodd"/><path d="M417.73 191.308 504.324 191.308 504.324 212.305 417.73 212.305Z" fill="#E9EBF5" fill-rule="evenodd"/><path d="M504.324 191.308 590.919 191.308 590.919 212.305 504.324 212.305Z" fill="#E9EBF5" fill-rule="evenodd"/><path d="M590.919 191.308 677.514 191.308 677.514 212.305 590.919 212.305Z" fill="#E9EBF5" fill-rule="evenodd"/><path d="M677.514 191.308 764.108 191.308 764.108 212.305 677.514 212.305Z" fill="#E9EBF5" fill-rule="evenodd"/><path d="M417.73 79.7658 417.73 212.971" stroke="#FFFFFF" stroke-width="1.33333" stroke-linejoin="round" stroke-miterlimit="10" fill="none" fill-rule="evenodd"/><path d="M504.324 79.7658 504.324 212.971" stroke="#FFFFFF" stroke-width="1.33333" stroke-linejoin="round" stroke-miterlimit="10" fill="none" fill-rule="evenodd"/><path d="M590.919 79.7658 590.919 212.971" stroke="#FFFFFF" stroke-width="1.33333" stroke-linejoin="round" stroke-miterlimit="10" fill="none" fill-rule="evenodd"/><path d="M677.514 79.7658 677.514 212.971" stroke="#FFFFFF" stroke-width="1.33333" stroke-linejoin="round" stroke-miterlimit="10" fill="none" fill-rule="evenodd"/><path d="M223.766 107.32 764.775 107.32" stroke="#FFFFFF" stroke-width="1.33333" stroke-linejoin="round" stroke-miterlimit="10" fill="none" fill-rule="evenodd"/><path d="M223.766 128.317 764.775 128.317" stroke="#FFFFFF" stroke-width="1.33333" stroke-linejoin="round" stroke-miterlimit="10" fill="none" fill-rule="evenodd"/><path d="M223.766 149.314 764.775 149.314" stroke="#FFFFFF" stroke-width="1.33333" stroke-linejoin="round" stroke-miterlimit="10" fill="none" fill-rule="evenodd"/><path d="M223.766 170.311 764.775 170.311" stroke="#FFFFFF" stroke-width="1.33333" stroke-linejoin="round" stroke-miterlimit="10" fill="none" fill-rule="evenodd"/><path d="M223.766 191.308 764.775 191.308" stroke="#FFFFFF" stroke-width="1.33333" stroke-linejoin="round" stroke-miterlimit="10" fill="none" fill-rule="evenodd"/><path d="M224.432 79.7658 224.432 212.971" stroke="#FFFFFF" stroke-width="1.33333" stroke-linejoin="round" stroke-miterlimit="10" fill="none" fill-rule="evenodd"/><path d="M764.108 79.7658 764.108 212.971" stroke="#FFFFFF" stroke-width="1.33333" stroke-linejoin="round" stroke-miterlimit="10" fill="none" fill-rule="evenodd"/><path d="M223.766 80.4324 764.775 80.4324" stroke="#FFFFFF" stroke-width="1.33333" stroke-linejoin="round" stroke-miterlimit="10" fill="none" fill-rule="evenodd"/><path d="M223.766 212.305 764.775 212.305" stroke="#FFFFFF" stroke-width="1.33333" stroke-linejoin="round" stroke-miterlimit="10" fill="none" fill-rule="evenodd"/><g><text fill="#FFFFFF" font-family="DengXian,DengXian_MSFontService,sans-serif" font-weight="700" font-size="14" transform="translate(685.073 98)">QC</text></g><text fill="#FFFFFF" font-family="DengXian,DengXian_MSFontService,sans-serif" font-weight="700" font-size="14" transform="translate(704.239 98)">-</text><text fill="#FFFFFF" font-family="DengXian,DengXian_MSFontService,sans-serif" font-weight="700" font-size="14" transform="translate(711.239 98)">2</text><g><text fill="#FFFFFF" font-family="DengXian,DengXian_MSFontService,sans-serif" font-weight="700" font-size="14" transform="translate(598.478 98)">QC</text></g><text fill="#FFFFFF" font-family="DengXian,DengXian_MSFontService,sans-serif" font-weight="700" font-size="14" transform="translate(617.645 98)">-</text><text fill="#FFFFFF" font-family="DengXian,DengXian_MSFontService,sans-serif" font-weight="700" font-size="14" transform="translate(624.645 98)">1</text><g><text fill="#FFFFFF" font-family="DengXian,DengXian_MSFontService,sans-serif" font-weight="700" font-size="14" transform="translate(511.883 98)">Test</text></g><text fill="#FFFFFF" font-family="DengXian,DengXian_MSFontService,sans-serif" font-weight="700" font-size="14" transform="translate(538.05 98)">-</text><text fill="#FFFFFF" font-family="DengXian,DengXian_MSFontService,sans-serif" font-weight="700" font-size="14" transform="translate(545.05 98)">2</text><g><text fill="#FFFFFF" font-family="DengXian,DengXian_MSFontService,sans-serif" font-weight="700" font-size="14" transform="translate(425.289 98)">Test</text></g><text fill="#FFFFFF" font-family="DengXian,DengXian_MSFontService,sans-serif" font-weight="700" font-size="14" transform="translate(451.455 98)">-</text><text fill="#FFFFFF" font-family="DengXian,DengXian_MSFontService,sans-serif" font-weight="700" font-size="14" transform="translate(458.455 98)">1</text><g><text fill="#FFFFFF" font-family="DengXian,DengXian_MSFontService,sans-serif" font-weight="700" font-size="14" transform="translate(231.991 97)">Metabolite</text></g><g><text font-family="DengXian,DengXian_MSFontService,sans-serif" font-weight="400" font-size="14" transform="translate(685.073 122)">0.05</text></g><g><text font-family="DengXian,DengXian_MSFontService,sans-serif" font-weight="400" font-size="14" transform="translate(598.478 122)">0.61</text></g><g><text font-family="DengXian,DengXian_MSFontService,sans-serif" font-weight="400" font-size="14" transform="translate(511.883 122)">0.05</text></g><g><text font-family="DengXian,DengXian_MSFontService,sans-serif" font-weight="400" font-size="14" transform="translate(425.289 122)">1</text></g><text font-family="DengXian,DengXian_MSFontService,sans-serif" font-weight="400" font-size="14" transform="translate(432.622 122)">.01</text><g><text font-family="DengXian,DengXian_MSFontService,sans-serif" font-weight="400" font-size="13" transform="translate(231.991 122)">5</text></g><text font-family="DengXian,DengXian_MSFontService,sans-serif" font-weight="400" font-size="13" transform="translate(238.991 122)">-</text><text font-family="DengXian,DengXian_MSFontService,sans-serif" font-weight="400" font-size="13" transform="translate(245.658 122)">L</text><text font-family="DengXian,DengXian_MSFontService,sans-serif" font-weight="400" font-size="13" transform="translate(251.825 122)">-</text><text font-family="DengXian,DengXian_MSFontService,sans-serif" font-weight="400" font-size="13" transform="translate(258.491 122)">Glutamyl</text><text font-family="DengXian,DengXian_MSFontService,sans-serif" font-weight="400" font-size="13" transform="translate(308.991 122)">-</text><text font-family="DengXian,DengXian_MSFontService,sans-serif" font-weight="400" font-size="13" transform="translate(315.658 122)">taurine</text><g><text font-family="DengXian,DengXian_MSFontService,sans-serif" font-weight="400" font-size="14" transform="translate(685.073 143)">0.70</text></g><g><text font-family="DengXian,DengXian_MSFontService,sans-serif" font-weight="400" font-size="14" transform="translate(598.478 143)">0.54</text></g><g><text font-family="DengXian,DengXian_MSFontService,sans-serif" font-weight="400" font-size="14" transform="translate(511.883 143)">0.70</text></g><g><text font-family="DengXian,DengXian_MSFontService,sans-serif" font-weight="400" font-size="14" transform="translate(425.289 143)">2</text></g><text font-family="DengXian,DengXian_MSFontService,sans-serif" font-weight="400" font-size="14" transform="translate(432.622 143)">.03</text><g><text font-family="DengXian,DengXian_MSFontService,sans-serif" font-weight="400" font-size="13" transform="translate(231.991 143)">ADMA + SDMA</text></g><g><text font-family="DengXian,DengXian_MSFontService,sans-serif" font-weight="400" font-size="14" transform="translate(685.073 164)">0.66</text></g><g><text font-family="DengXian,DengXian_MSFontService,sans-serif" font-weight="400" font-size="14" transform="translate(598.478 164)">0.88</text></g><g><text font-family="DengXian,DengXian_MSFontService,sans-serif" font-weight="400" font-size="14" transform="translate(511.883 164)">0.66</text></g><g><text font-family="DengXian,DengXian_MSFontService,sans-serif" font-weight="400" font-size="14" transform="translate(425.289 164)">0.0</text></g><text font-family="DengXian,DengXian_MSFontService,sans-serif" font-weight="400" font-size="14" transform="translate(442.955 164)">5</text><g><text font-family="DengXian,DengXian_MSFontService,sans-serif" font-weight="400" font-size="13" transform="translate(231.991 164)">Methionine sulfoxide</text></g><g><text font-family="DengXian,DengXian_MSFontService,sans-serif" font-weight="400" font-size="14" transform="translate(685.073 185)">0.18</text></g><g><text font-family="DengXian,DengXian_MSFontService,sans-serif" font-weight="400" font-size="14" transform="translate(598.478 185)">0.84</text></g><g><text font-family="DengXian,DengXian_MSFontService,sans-serif" font-weight="400" font-size="14" transform="translate(511.883 185)">0.18</text></g><g><text font-family="DengXian,DengXian_MSFontService,sans-serif" font-weight="400" font-size="14" transform="translate(425.289 185)">0.1</text></g><text font-family="DengXian,DengXian_MSFontService,sans-serif" font-weight="400" font-size="14" transform="translate(442.955 185)">4</text><g><text font-family="DengXian,DengXian_MSFontService,sans-serif" font-weight="400" font-size="13" transform="translate(231.991 185)">N</text></g><text font-family="DengXian,DengXian_MSFontService,sans-serif" font-weight="400" font-size="13" transform="translate(241.658 185)">-</text><text font-family="DengXian,DengXian_MSFontService,sans-serif" font-weight="400" font-size="13" transform="translate(248.325 185)">Acetyl</text><text font-family="DengXian,DengXian_MSFontService,sans-serif" font-weight="400" font-size="13" transform="translate(282.991 185)">-</text><text font-family="DengXian,DengXian_MSFontService,sans-serif" font-weight="400" font-size="13" transform="translate(289.658 185)">L</text><text font-family="DengXian,DengXian_MSFontService,sans-serif" font-weight="400" font-size="13" transform="translate(295.825 185)">-</text><text font-family="DengXian,DengXian_MSFontService,sans-serif" font-weight="400" font-size="13" transform="translate(302.491 185)">phenylalanine</text><g><text font-family="DengXian,DengXian_MSFontService,sans-serif" font-weight="400" font-size="14" transform="translate(685.073 206)">0.56</text></g><g><text font-family="DengXian,DengXian_MSFontService,sans-serif" font-weight="400" font-size="14" transform="translate(598.478 206)">1.13</text></g><g><text font-family="DengXian,DengXian_MSFontService,sans-serif" font-weight="400" font-size="14" transform="translate(511.883 206)">0.56</text></g><g><text font-family="DengXian,DengXian_MSFontService,sans-serif" font-weight="400" font-size="14" transform="translate(425.289 206)">0.2</text></g><text font-family="DengXian,DengXian_MSFontService,sans-serif" font-weight="400" font-size="14" transform="translate(442.955 206)">5</text><g><text font-family="DengXian,DengXian_MSFontService,sans-serif" font-weight="400" font-size="13" transform="translate(231.991 206)">methionine</text></g></g></svg>