<svg width="279" height="140" xmlns="http://www.w3.org/2000/svg" xmlns:xlink="http://www.w3.org/1999/xlink" overflow="hidden"><g transform="translate(-223 -371)"><path d="M224.432 372.017 323.586 372.017 323.586 398.904 224.432 398.904Z" fill="#4472C4" fill-rule="evenodd"/><path d="M323.586 372.017 411.724 372.017 411.724 398.904 323.586 398.904Z" fill="#4472C4" fill-rule="evenodd"/><path d="M411.724 372.017 499.862 372.017 499.862 398.904 411.724 398.904Z" fill="#4472C4" fill-rule="evenodd"/><path d="M224.432 398.904 323.586 398.904 323.586 419.901 224.432 419.901Z" fill="#E9EBF5" fill-rule="evenodd"/><path d="M323.586 398.904 411.724 398.904 411.724 419.901 323.586 419.901Z" fill="#E9EBF5" fill-rule="evenodd"/><path d="M411.724 398.904 499.862 398.904 499.862 419.901 411.724 419.901Z" fill="#E9EBF5" fill-rule="evenodd"/><path d="M224.432 419.901 323.586 419.901 323.586 440.898 224.432 440.898Z" fill="#E9EBF5" fill-rule="evenodd"/><path d="M323.586 419.901 411.724 419.901 411.724 440.898 323.586 440.898Z" fill="#E9EBF5" fill-rule="evenodd"/><path d="M411.724 419.901 499.862 419.901 499.862 440.898 411.724 440.898Z" fill="#E9EBF5" fill-rule="evenodd"/><path d="M224.432 440.898 323.586 440.898 323.586 461.895 224.432 461.895Z" fill="#E9EBF5" fill-rule="evenodd"/><path d="M323.586 440.898 411.724 440.898 411.724 461.895 323.586 461.895Z" fill="#E9EBF5" fill-rule="evenodd"/><path d="M411.724 440.898 499.862 440.898 499.862 461.895 411.724 461.895Z" fill="#E9EBF5" fill-rule="evenodd"/><path d="M224.432 461.895 323.586 461.895 323.586 482.892 224.432 482.892Z" fill="#E9EBF5" fill-rule="evenodd"/><path d="M323.586 461.895 411.724 461.895 411.724 482.892 323.586 482.892Z" fill="#E9EBF5" fill-rule="evenodd"/><path d="M411.724 461.895 499.862 461.895 499.862 482.892 411.724 482.892Z" fill="#E9EBF5" fill-rule="evenodd"/><path d="M224.432 482.892 323.586 482.892 323.586 503.889 224.432 503.889Z" fill="#E9EBF5" fill-rule="evenodd"/><path d="M323.586 482.892 411.724 482.892 411.724 503.889 323.586 503.889Z" fill="#E9EBF5" fill-rule="evenodd"/><path d="M411.724 482.892 499.862 482.892 499.862 503.889 411.724 503.889Z" fill="#E9EBF5" fill-rule="evenodd"/><path d="M323.586 371.35 323.586 504.556" stroke="#FFFFFF" stroke-width="1.33333" stroke-linejoin="round" stroke-miterlimit="10" fill="none" fill-rule="evenodd"/><path d="M411.724 371.35 411.724 504.556" stroke="#FFFFFF" stroke-width="1.33333" stroke-linejoin="round" stroke-miterlimit="10" fill="none" fill-rule="evenodd"/><path d="M223.766 398.904 500.529 398.904" stroke="#FFFFFF" stroke-width="1.33333" stroke-linejoin="round" stroke-miterlimit="10" fill="none" fill-rule="evenodd"/><path d="M223.766 419.901 500.529 419.901" stroke="#FFFFFF" stroke-width="1.33333" stroke-linejoin="round" stroke-miterlimit="10" fill="none" fill-rule="evenodd"/><path d="M223.766 440.898 500.529 440.898" stroke="#FFFFFF" stroke-width="1.33333" stroke-linejoin="round" stroke-miterlimit="10" fill="none" fill-rule="evenodd"/><path d="M223.766 461.895 500.529 461.895" stroke="#FFFFFF" stroke-width="1.33333" stroke-linejoin="round" stroke-miterlimit="10" fill="none" fill-rule="evenodd"/><path d="M223.766 482.892 500.529 482.892" stroke="#FFFFFF" stroke-width="1.33333" stroke-linejoin="round" stroke-miterlimit="10" fill="none" fill-rule="evenodd"/><path d="M224.432 371.35 224.432 504.556" stroke="#FFFFFF" stroke-width="1.33333" stroke-linejoin="round" stroke-miterlimit="10" fill="none" fill-rule="evenodd"/><path d="M499.862 371.35 499.862 504.556" stroke="#FFFFFF" stroke-width="1.33333" stroke-linejoin="round" stroke-miterlimit="10" fill="none" fill-rule="evenodd"/><path d="M223.766 372.017 500.529 372.017" stroke="#FFFFFF" stroke-width="1.33333" stroke-linejoin="round" stroke-miterlimit="10" fill="none" fill-rule="evenodd"/><path d="M223.766 503.889 500.529 503.889" stroke="#FFFFFF" stroke-width="1.33333" stroke-linejoin="round" stroke-miterlimit="10" fill="none" fill-rule="evenodd"/><g><text fill="#FFFFFF" font-family="DengXian,DengXian_MSFontService,sans-serif" font-weight="700" font-size="14" transform="translate(419.283 390)">Type</text></g><g><text fill="#FFFFFF" font-family="DengXian,DengXian_MSFontService,sans-serif" font-weight="700" font-size="14" transform="translate(331.145 390)">G</text></g><text fill="#FFFFFF" font-family="DengXian,DengXian_MSFontService,sans-serif" font-weight="700" font-size="14" transform="translate(340.979 390)">roup</text><g><text fill="#FFFFFF" font-family="DengXian,DengXian_MSFontService,sans-serif" font-weight="700" font-size="14" transform="translate(231.991 389)">S</text></g><text fill="#FFFFFF" font-family="DengXian,DengXian_MSFontService,sans-serif" font-weight="700" font-size="14" transform="translate(239.658 389)">ample</text><g><text font-family="DengXian,DengXian_MSFontService,sans-serif" font-weight="400" font-size="14" transform="translate(419.283 414)">Control</text></g><g><text font-family="DengXian,DengXian_MSFontService,sans-serif" font-weight="400" font-size="14" transform="translate(331.145 414)">Test</text></g><g><text font-family="DengXian,DengXian_MSFontService,sans-serif" font-weight="400" font-size="13" transform="translate(231.991 413)">Sample 1</text></g><text font-family="DengXian,DengXian_MSFontService,sans-serif" font-weight="400" font-size="13" transform="translate(284.825 413)">-</text><text font-family="DengXian,DengXian_MSFontService,sans-serif" font-weight="400" font-size="13" transform="translate(291.491 413)">1</text><g><text font-family="DengXian,DengXian_MSFontService,sans-serif" font-weight="400" font-size="14" transform="translate(419.283 435)">Control</text></g><g><text font-family="DengXian,DengXian_MSFontService,sans-serif" font-weight="400" font-size="14" transform="translate(331.145 435)">Test</text></g><g><text font-family="DengXian,DengXian_MSFontService,sans-serif" font-weight="400" font-size="13" transform="translate(231.991 434)">Sample 2</text></g><text font-family="DengXian,DengXian_MSFontService,sans-serif" font-weight="400" font-size="13" transform="translate(284.825 434)">-</text><text font-family="DengXian,DengXian_MSFontService,sans-serif" font-weight="400" font-size="13" transform="translate(291.491 434)">1</text><g><text font-family="DengXian,DengXian_MSFontService,sans-serif" font-weight="400" font-size="14" transform="translate(419.283 456)">Treatment</text></g><g><text font-family="DengXian,DengXian_MSFontService,sans-serif" font-weight="400" font-size="14" transform="translate(331.145 456)">QC</text></g><g><text font-family="DengXian,DengXian_MSFontService,sans-serif" font-weight="400" font-size="13" transform="translate(231.991 455)">Sample 3</text></g><text font-family="DengXian,DengXian_MSFontService,sans-serif" font-weight="400" font-size="13" transform="translate(284.825 455)">-</text><text font-family="DengXian,DengXian_MSFontService,sans-serif" font-weight="400" font-size="13" transform="translate(291.491 455)">1</text><g><text font-family="DengXian,DengXian_MSFontService,sans-serif" font-weight="400" font-size="14" transform="translate(419.283 477)">Treatment</text></g><g><text font-family="DengXian,DengXian_MSFontService,sans-serif" font-weight="400" font-size="14" transform="translate(331.145 477)">QC</text></g><g><text font-family="DengXian,DengXian_MSFontService,sans-serif" font-weight="400" font-size="13" transform="translate(231.991 476)">Sample 4</text></g><text font-family="DengXian,DengXian_MSFontService,sans-serif" font-weight="400" font-size="13" transform="translate(284.825 476)">-</text><text font-family="DengXian,DengXian_MSFontService,sans-serif" font-weight="400" font-size="13" transform="translate(291.491 476)">1</text><g><text font-family="DengXian,DengXian_MSFontService,sans-serif" font-weight="400" font-size="14" transform="translate(419.283 498)">Treatment</text></g><g><text font-family="DengXian,DengXian_MSFontService,sans-serif" font-weight="400" font-size="14" transform="translate(331.145 498)">QC</text></g><g><text font-family="DengXian,DengXian_MSFontService,sans-serif" font-weight="400" font-size="13" transform="translate(231.991 497)">Sample 5</text></g><text font-family="DengXian,DengXian_MSFontService,sans-serif" font-weight="400" font-size="13" transform="translate(284.825 497)">-</text><text font-family="DengXian,DengXian_MSFontService,sans-serif" font-weight="400" font-size="13" transform="translate(291.491 497)">1</text></g></svg>