<svg width="587" height="140" xmlns="http://www.w3.org/2000/svg" xmlns:xlink="http://www.w3.org/1999/xlink" overflow="hidden"><g transform="translate(-223 -200)"><path d="M224.432 201.206 333.517 201.206 333.517 228.094 224.432 228.094Z" fill="#4472C4" fill-rule="evenodd"/><path d="M333.517 201.206 434.483 201.206 434.483 228.094 333.517 228.094Z" fill="#4472C4" fill-rule="evenodd"/><path d="M434.483 201.206 535.448 201.206 535.448 228.094 434.483 228.094Z" fill="#4472C4" fill-rule="evenodd"/><path d="M535.448 201.206 636.414 201.206 636.414 228.094 535.448 228.094Z" fill="#4472C4" fill-rule="evenodd"/><path d="M636.414 201.206 807.724 201.206 807.724 228.094 636.414 228.094Z" fill="#4472C4" fill-rule="evenodd"/><path d="M224.432 228.094 333.517 228.094 333.517 249.091 224.432 249.091Z" fill="#E9EBF5" fill-rule="evenodd"/><path d="M333.517 228.094 434.483 228.094 434.483 249.091 333.517 249.091Z" fill="#E9EBF5" fill-rule="evenodd"/><path d="M434.483 228.094 535.448 228.094 535.448 249.091 434.483 249.091Z" fill="#E9EBF5" fill-rule="evenodd"/><path d="M535.448 228.094 636.414 228.094 636.414 249.091 535.448 249.091Z" fill="#E9EBF5" fill-rule="evenodd"/><path d="M636.414 228.094 807.724 228.094 807.724 249.091 636.414 249.091Z" fill="#E9EBF5" fill-rule="evenodd"/><path d="M224.432 249.091 333.517 249.091 333.517 270.088 224.432 270.088Z" fill="#E9EBF5" fill-rule="evenodd"/><path d="M333.517 249.091 434.483 249.091 434.483 270.088 333.517 270.088Z" fill="#E9EBF5" fill-rule="evenodd"/><path d="M434.483 249.091 535.448 249.091 535.448 270.088 434.483 270.088Z" fill="#E9EBF5" fill-rule="evenodd"/><path d="M535.448 249.091 636.414 249.091 636.414 270.088 535.448 270.088Z" fill="#E9EBF5" fill-rule="evenodd"/><path d="M636.414 249.091 807.724 249.091 807.724 270.088 636.414 270.088Z" fill="#E9EBF5" fill-rule="evenodd"/><path d="M224.432 270.088 333.517 270.088 333.517 291.085 224.432 291.085Z" fill="#E9EBF5" fill-rule="evenodd"/><path d="M333.517 270.088 434.483 270.088 434.483 291.085 333.517 291.085Z" fill="#E9EBF5" fill-rule="evenodd"/><path d="M434.483 270.088 535.448 270.088 535.448 291.085 434.483 291.085Z" fill="#E9EBF5" fill-rule="evenodd"/><path d="M535.448 270.088 636.414 270.088 636.414 291.085 535.448 291.085Z" fill="#E9EBF5" fill-rule="evenodd"/><path d="M636.414 270.088 807.724 270.088 807.724 291.085 636.414 291.085Z" fill="#E9EBF5" fill-rule="evenodd"/><path d="M224.432 291.085 333.517 291.085 333.517 312.082 224.432 312.082Z" fill="#E9EBF5" fill-rule="evenodd"/><path d="M333.517 291.085 434.483 291.085 434.483 312.082 333.517 312.082Z" fill="#E9EBF5" fill-rule="evenodd"/><path d="M434.483 291.085 535.448 291.085 535.448 312.082 434.483 312.082Z" fill="#E9EBF5" fill-rule="evenodd"/><path d="M535.448 291.085 636.414 291.085 636.414 312.082 535.448 312.082Z" fill="#E9EBF5" fill-rule="evenodd"/><path d="M636.414 291.085 807.724 291.085 807.724 312.082 636.414 312.082Z" fill="#E9EBF5" fill-rule="evenodd"/><path d="M224.432 312.082 333.517 312.082 333.517 333.079 224.432 333.079Z" fill="#E9EBF5" fill-rule="evenodd"/><path d="M333.517 312.082 434.483 312.082 434.483 333.079 333.517 333.079Z" fill="#E9EBF5" fill-rule="evenodd"/><path d="M434.483 312.082 535.448 312.082 535.448 333.079 434.483 333.079Z" fill="#E9EBF5" fill-rule="evenodd"/><path d="M535.448 312.082 636.414 312.082 636.414 333.079 535.448 333.079Z" fill="#E9EBF5" fill-rule="evenodd"/><path d="M636.414 312.082 807.724 312.082 807.724 333.079 636.414 333.079Z" fill="#E9EBF5" fill-rule="evenodd"/><path d="M333.517 200.54 333.517 333.745" stroke="#FFFFFF" stroke-width="1.33333" stroke-linejoin="round" stroke-miterlimit="10" fill="none" fill-rule="evenodd"/><path d="M434.483 200.54 434.483 333.745" stroke="#FFFFFF" stroke-width="1.33333" stroke-linejoin="round" stroke-miterlimit="10" fill="none" fill-rule="evenodd"/><path d="M535.448 200.54 535.448 333.745" stroke="#FFFFFF" stroke-width="1.33333" stroke-linejoin="round" stroke-miterlimit="10" fill="none" fill-rule="evenodd"/><path d="M636.414 200.54 636.414 333.745" stroke="#FFFFFF" stroke-width="1.33333" stroke-linejoin="round" stroke-miterlimit="10" fill="none" fill-rule="evenodd"/><path d="M223.766 228.094 808.39 228.094" stroke="#FFFFFF" stroke-width="1.33333" stroke-linejoin="round" stroke-miterlimit="10" fill="none" fill-rule="evenodd"/><path d="M223.766 249.091 808.39 249.091" stroke="#FFFFFF" stroke-width="1.33333" stroke-linejoin="round" stroke-miterlimit="10" fill="none" fill-rule="evenodd"/><path d="M223.766 270.088 808.39 270.088" stroke="#FFFFFF" stroke-width="1.33333" stroke-linejoin="round" stroke-miterlimit="10" fill="none" fill-rule="evenodd"/><path d="M223.766 291.085 808.39 291.085" stroke="#FFFFFF" stroke-width="1.33333" stroke-linejoin="round" stroke-miterlimit="10" fill="none" fill-rule="evenodd"/><path d="M223.766 312.082 808.39 312.082" stroke="#FFFFFF" stroke-width="1.33333" stroke-linejoin="round" stroke-miterlimit="10" fill="none" fill-rule="evenodd"/><path d="M224.432 200.54 224.432 333.745" stroke="#FFFFFF" stroke-width="1.33333" stroke-linejoin="round" stroke-miterlimit="10" fill="none" fill-rule="evenodd"/><path d="M807.724 200.54 807.724 333.745" stroke="#FFFFFF" stroke-width="1.33333" stroke-linejoin="round" stroke-miterlimit="10" fill="none" fill-rule="evenodd"/><path d="M223.766 201.206 808.39 201.206" stroke="#FFFFFF" stroke-width="1.33333" stroke-linejoin="round" stroke-miterlimit="10" fill="none" fill-rule="evenodd"/><path d="M223.766 333.079 808.39 333.079" stroke="#FFFFFF" stroke-width="1.33333" stroke-linejoin="round" stroke-miterlimit="10" fill="none" fill-rule="evenodd"/><g><text fill="#FFFFFF" font-family="DengXian,DengXian_MSFontService,sans-serif" font-weight="700" font-size="14" transform="translate(643.973 219)">Methionine sulfoxide</text></g><g><text fill="#FFFFFF" font-family="DengXian,DengXian_MSFontService,sans-serif" font-weight="700" font-size="14" transform="translate(543.007 219)">methionine</text></g><g><text fill="#FFFFFF" font-family="DengXian,DengXian_MSFontService,sans-serif" font-weight="700" font-size="14" transform="translate(442.042 219)">T</text></g><text fill="#FFFFFF" font-family="DengXian,DengXian_MSFontService,sans-serif" font-weight="700" font-size="14" transform="translate(449.708 219)">G(56:7)</text><g><text fill="#FFFFFF" font-family="DengXian,DengXian_MSFontService,sans-serif" font-weight="700" font-size="14" transform="translate(341.076 219)">T</text></g><text fill="#FFFFFF" font-family="DengXian,DengXian_MSFontService,sans-serif" font-weight="700" font-size="14" transform="translate(348.743 219)">G(54:5)</text><g><text fill="#FFFFFF" font-family="DengXian,DengXian_MSFontService,sans-serif" font-weight="700" font-size="14" transform="translate(231.991 218)">Sample</text></g><g><text font-family="DengXian,DengXian_MSFontService,sans-serif" font-weight="400" font-size="14" transform="translate(643.973 243)">0.05</text></g><g><text font-family="DengXian,DengXian_MSFontService,sans-serif" font-weight="400" font-size="14" transform="translate(543.007 243)">0.61</text></g><g><text font-family="DengXian,DengXian_MSFontService,sans-serif" font-weight="400" font-size="14" transform="translate(442.042 243)">0.05</text></g><g><text font-family="DengXian,DengXian_MSFontService,sans-serif" font-weight="400" font-size="14" transform="translate(341.076 243)">1.01</text></g><g><text font-family="DengXian,DengXian_MSFontService,sans-serif" font-weight="400" font-size="13" transform="translate(231.991 243)">Sample 1</text></g><text font-family="DengXian,DengXian_MSFontService,sans-serif" font-weight="400" font-size="13" transform="translate(284.825 243)">-</text><text font-family="DengXian,DengXian_MSFontService,sans-serif" font-weight="400" font-size="13" transform="translate(291.491 243)">1</text><g><text font-family="DengXian,DengXian_MSFontService,sans-serif" font-weight="400" font-size="14" transform="translate(643.973 264)">0.70</text></g><g><text font-family="DengXian,DengXian_MSFontService,sans-serif" font-weight="400" font-size="14" transform="translate(543.007 264)">0.54</text></g><g><text font-family="DengXian,DengXian_MSFontService,sans-serif" font-weight="400" font-size="14" transform="translate(442.042 264)">0.70</text></g><g><text font-family="DengXian,DengXian_MSFontService,sans-serif" font-weight="400" font-size="14" transform="translate(341.076 264)">2.03</text></g><g><text font-family="DengXian,DengXian_MSFontService,sans-serif" font-weight="400" font-size="13" transform="translate(231.991 264)">Sample 2</text></g><text font-family="DengXian,DengXian_MSFontService,sans-serif" font-weight="400" font-size="13" transform="translate(284.825 264)">-</text><text font-family="DengXian,DengXian_MSFontService,sans-serif" font-weight="400" font-size="13" transform="translate(291.491 264)">1</text><g><text font-family="DengXian,DengXian_MSFontService,sans-serif" font-weight="400" font-size="14" transform="translate(643.973 285)">0.66</text></g><g><text font-family="DengXian,DengXian_MSFontService,sans-serif" font-weight="400" font-size="14" transform="translate(543.007 285)">0.88</text></g><g><text font-family="DengXian,DengXian_MSFontService,sans-serif" font-weight="400" font-size="14" transform="translate(442.042 285)">0.66</text></g><g><text font-family="DengXian,DengXian_MSFontService,sans-serif" font-weight="400" font-size="14" transform="translate(341.076 285)">0.05</text></g><g><text font-family="DengXian,DengXian_MSFontService,sans-serif" font-weight="400" font-size="13" transform="translate(231.991 285)">Sample 3</text></g><text font-family="DengXian,DengXian_MSFontService,sans-serif" font-weight="400" font-size="13" transform="translate(284.825 285)">-</text><text font-family="DengXian,DengXian_MSFontService,sans-serif" font-weight="400" font-size="13" transform="translate(291.491 285)">1</text><g><text font-family="DengXian,DengXian_MSFontService,sans-serif" font-weight="400" font-size="14" transform="translate(643.973 306)">0.18</text></g><g><text font-family="DengXian,DengXian_MSFontService,sans-serif" font-weight="400" font-size="14" transform="translate(543.007 306)">0.84</text></g><g><text font-family="DengXian,DengXian_MSFontService,sans-serif" font-weight="400" font-size="14" transform="translate(442.042 306)">0.18</text></g><g><text font-family="DengXian,DengXian_MSFontService,sans-serif" font-weight="400" font-size="14" transform="translate(341.076 306)">0.14</text></g><g><text font-family="DengXian,DengXian_MSFontService,sans-serif" font-weight="400" font-size="13" transform="translate(231.991 306)">Sample 4</text></g><text font-family="DengXian,DengXian_MSFontService,sans-serif" font-weight="400" font-size="13" transform="translate(284.825 306)">-</text><text font-family="DengXian,DengXian_MSFontService,sans-serif" font-weight="400" font-size="13" transform="translate(291.491 306)">1</text><g><text font-family="DengXian,DengXian_MSFontService,sans-serif" font-weight="400" font-size="14" transform="translate(643.973 327)">0.56</text></g><g><text font-family="DengXian,DengXian_MSFontService,sans-serif" font-weight="400" font-size="14" transform="translate(543.007 327)">1.13</text></g><g><text font-family="DengXian,DengXian_MSFontService,sans-serif" font-weight="400" font-size="14" transform="translate(442.042 327)">0.56</text></g><g><text font-family="DengXian,DengXian_MSFontService,sans-serif" font-weight="400" font-size="14" transform="translate(341.076 327)">0.25</text></g><g><text font-family="DengXian,DengXian_MSFontService,sans-serif" font-weight="400" font-size="13" transform="translate(231.991 327)">Sample 5</text></g><text font-family="DengXian,DengXian_MSFontService,sans-serif" font-weight="400" font-size="13" transform="translate(284.825 327)">-</text><text font-family="DengXian,DengXian_MSFontService,sans-serif" font-weight="400" font-size="13" transform="translate(291.491 327)">1</text></g></svg>