<svg width="323" height="120" xmlns="http://www.w3.org/2000/svg" xmlns:xlink="http://www.w3.org/1999/xlink" overflow="hidden"><g transform="translate(-223 -541)"><path d="M224.432 542.828 417.103 542.828 417.103 569.715 224.432 569.715Z" fill="#4472C4" fill-rule="evenodd"/><path d="M417.103 542.828 544.216 542.828 544.216 569.715 417.103 569.715Z" fill="#4472C4" fill-rule="evenodd"/><path d="M224.432 569.715 417.103 569.715 417.103 590.712 224.432 590.712Z" fill="#E9EBF5" fill-rule="evenodd"/><path d="M417.103 569.715 544.216 569.715 544.216 590.712 417.103 590.712Z" fill="#E9EBF5" fill-rule="evenodd"/><path d="M224.432 590.712 417.103 590.712 417.103 611.709 224.432 611.709Z" fill="#E9EBF5" fill-rule="evenodd"/><path d="M417.103 590.712 544.216 590.712 544.216 611.709 417.103 611.709Z" fill="#E9EBF5" fill-rule="evenodd"/><path d="M224.432 611.709 417.103 611.709 417.103 632.706 224.432 632.706Z" fill="#E9EBF5" fill-rule="evenodd"/><path d="M417.103 611.709 544.216 611.709 544.216 632.706 417.103 632.706Z" fill="#E9EBF5" fill-rule="evenodd"/><path d="M224.432 632.706 417.103 632.706 417.103 653.703 224.432 653.703Z" fill="#E9EBF5" fill-rule="evenodd"/><path d="M417.103 632.706 544.216 632.706 544.216 653.703 417.103 653.703Z" fill="#E9EBF5" fill-rule="evenodd"/><path d="M417.103 542.161 417.103 654.37" stroke="#FFFFFF" stroke-width="1.33333" stroke-linejoin="round" stroke-miterlimit="10" fill="none" fill-rule="evenodd"/><path d="M223.766 569.715 544.883 569.715" stroke="#FFFFFF" stroke-width="1.33333" stroke-linejoin="round" stroke-miterlimit="10" fill="none" fill-rule="evenodd"/><path d="M223.766 590.712 544.883 590.712" stroke="#FFFFFF" stroke-width="1.33333" stroke-linejoin="round" stroke-miterlimit="10" fill="none" fill-rule="evenodd"/><path d="M223.766 611.709 544.883 611.709" stroke="#FFFFFF" stroke-width="1.33333" stroke-linejoin="round" stroke-miterlimit="10" fill="none" fill-rule="evenodd"/><path d="M223.766 632.706 544.883 632.706" stroke="#FFFFFF" stroke-width="1.33333" stroke-linejoin="round" stroke-miterlimit="10" fill="none" fill-rule="evenodd"/><path d="M224.432 542.161 224.432 654.37" stroke="#FFFFFF" stroke-width="1.33333" stroke-linejoin="round" stroke-miterlimit="10" fill="none" fill-rule="evenodd"/><path d="M544.216 542.161 544.216 654.37" stroke="#FFFFFF" stroke-width="1.33333" stroke-linejoin="round" stroke-miterlimit="10" fill="none" fill-rule="evenodd"/><path d="M223.766 542.828 544.883 542.828" stroke="#FFFFFF" stroke-width="1.33333" stroke-linejoin="round" stroke-miterlimit="10" fill="none" fill-rule="evenodd"/><path d="M223.766 653.703 544.883 653.703" stroke="#FFFFFF" stroke-width="1.33333" stroke-linejoin="round" stroke-miterlimit="10" fill="none" fill-rule="evenodd"/><g><text fill="#FFFFFF" font-family="DengXian,DengXian_MSFontService,sans-serif" font-weight="700" font-size="14" transform="translate(424.662 561)">class</text></g><g><text fill="#FFFFFF" font-family="DengXian,DengXian_MSFontService,sans-serif" font-weight="700" font-size="14" transform="translate(231.991 560)">Metabolite</text></g><g><text font-family="DengXian,DengXian_MSFontService,sans-serif" font-weight="400" font-size="14" transform="translate(424.662 585)">Amino acid</text></g><g><text font-family="DengXian,DengXian_MSFontService,sans-serif" font-weight="400" font-size="13" transform="translate(231.991 584)">TG(54:5)</text></g><g><text font-family="DengXian,DengXian_MSFontService,sans-serif" font-weight="400" font-size="14" transform="translate(424.662 606)">Amino acid</text></g><g><text font-family="DengXian,DengXian_MSFontService,sans-serif" font-weight="400" font-size="13" transform="translate(231.991 605)">TG(56:7)</text></g><g><text font-family="DengXian,DengXian_MSFontService,sans-serif" font-weight="400" font-size="14" transform="translate(424.662 627)">Amino acid</text></g><g><text font-family="DengXian,DengXian_MSFontService,sans-serif" font-weight="400" font-size="13" transform="translate(231.991 626)">Methionine sulfoxide</text></g><g><text font-family="DengXian,DengXian_MSFontService,sans-serif" font-weight="400" font-size="14" transform="translate(424.662 648)">Fatty acid</text></g><g><text font-family="DengXian,DengXian_MSFontService,sans-serif" font-weight="400" font-size="13" transform="translate(231.991 647)">methionine</text></g></g></svg>