<svg width="256" height="256" viewBox="0 0 256 256" xmlns="http://www.w3.org/2000/svg" xmlns:xlink="http://www.w3.org/1999/xlink" id="图层_1" overflow="hidden"><defs></defs><defs></defs><g transform="matrix(0.278288 0 0 0.278288 -14.4833 -14.471)"><path d="M372.38 699.24C258.15 645.35 184.32 529 184.32 402.68 184.32 222 331.32 75 512 75 692.68 75 839.68 222 839.68 402.68 839.68 528.95 765.85 645.35 649.91 700.23 635.465 710.383 625.628 725.844 622.55 743.23L580.68 743.23 580.68 537.11 644.2 537.11C708.561 537.079 761.489 486.38 764.288 422.08 767.087 357.78 718.765 302.674 654.65 297.05 649.26 268.87 623.65 247.62 593.4 249.84 572.31 211.9 532.04 187.84 488.55 187.84 426.427 187.917 374.557 235.235 368.79 297.09 304.857 303.054 256.886 358.193 259.826 422.336 262.766 486.48 315.579 536.999 379.79 537.09L443.31 537.09 443.31 743.27 401.42 743.27C398.35 726 388.35 710.31 372.38 699.24Z" fill="#FFFFFF"/><rect x="466.31" y="537.11" width="91.37" height="206.16" fill="#FFFFFF"/><path d="M379.79 319.6C401.23 319.6 420.49 328.79 432.69 344.81 443.59 359.11 447.23 376.75 442.69 393.2 441.001 399.315 444.579 405.644 450.69 407.35 451.688 407.618 452.717 407.756 453.75 407.76 458.925 407.754 463.461 404.298 464.84 399.31 471.29 375.89 466.24 350.94 450.96 330.87 436.86 312.36 415.83 301.1 392.29 297.97 397.43 249.15 438.35 210.83 488.52 210.83 525.98 210.83 560.52 232.99 576.52 267.28 578.804 272.207 584.23 274.858 589.52 273.63 600.014 271.159 611.062 273.644 619.488 280.37 627.914 287.096 632.784 297.319 632.7 308.1 632.7 338.38 607.15 347.84 605.82 348.32 600.478 350.117 597.229 355.524 598.148 361.084 599.067 366.645 603.884 370.718 609.52 370.7 610.758 370.703 611.988 370.501 613.16 370.1 626.16 365.76 649.27 350.19 654.55 320.65 703.27 325.89 741.46 366.77 741.46 416.86 741.399 470.548 697.888 514.055 644.2 514.11 616.404 514.082 593.878 491.556 593.85 463.76 593.85 457.409 588.701 452.26 582.35 452.26 575.999 452.26 570.85 457.409 570.85 463.76 570.874 482.527 578.134 500.561 591.12 514.11L379.79 514.11C344.809 514.465 312.333 496.006 294.739 465.769 277.145 435.533 277.145 398.177 294.739 367.941 312.333 337.704 344.809 319.245 379.79 319.6Z" fill="#4DD0E1"/><path d="M512 949C492.915 948.963 476.174 936.261 471 917.89L553 917.89C547.829 936.263 531.086 948.967 512 949Z" fill="#4DD0E1"/><path d="M621.54 894.89 566.09 894.89 457.89 894.89 402.44 894.89 402.44 867.36 621.54 867.36 621.54 894.89Z" fill="#7CB342"/><rect x="402.44" y="816.81" width="219.11" height="27.55" fill="#7CB342"/><rect x="402.44" y="766.27" width="219.11" height="27.54" fill="#7CB342"/><path d="M397.88 466.24C407.22 466.24 415.75 463.94 421.64 460.62 425.391 458.698 427.788 454.877 427.886 450.663 427.985 446.45 425.769 442.521 422.112 440.425 418.456 438.33 413.945 438.405 410.36 440.62 404.16 444.1 388.1 446.03 377.19 435.1 366.28 424.17 368.19 408.1 371.69 401.94 374.436 396.461 372.402 389.791 367.065 386.776 361.729 383.761 354.967 385.461 351.69 390.64 343.99 404.3 341.76 432.17 360.97 451.36 371.84 462.25 385.57 466.24 397.88 466.24Z" fill="#37474F"/><path d="M482.78 272.19C488.325 275.288 495.332 273.305 498.43 267.76 501.528 262.215 499.545 255.208 494 252.11 480.79 244.74 458.71 245.01 443.69 260.11 428.67 275.21 428.39 297.22 435.69 310.4 438.786 315.948 445.792 317.936 451.34 314.84 456.888 311.744 458.876 304.738 455.78 299.19 453.51 295.14 452.36 283.93 459.91 276.37 467.46 268.81 478.76 269.94 482.78 272.19Z" fill="#37474F"/><path d="M622.93 412.67C628.48 409.55 643.03 407.95 653.14 418.04 663.25 428.13 661.61 442.69 658.51 448.26 656.38 451.856 656.37 456.325 658.482 459.931 660.594 463.538 664.496 465.714 668.675 465.617 672.853 465.519 676.649 463.161 678.59 459.46 685.8 446.55 687.74 420.1 669.41 401.77 651.08 383.44 624.62 385.33 611.7 392.59 606.155 395.691 604.174 402.7 607.275 408.245 610.376 413.79 617.385 415.771 622.93 412.67Z" fill="#37474F"/><path d="M661.39 720C783.66 662.34 862.68 537.77 862.68 402.64 862.68 209.32 705.36 52 512 52 318.64 52 161.32 209.32 161.32 402.68 161.32 537.81 240.32 662.38 360.86 719.05 372.495 727.226 379.426 740.55 379.44 754.77L379.44 793.77 373.75 793.77C367.399 793.77 362.25 798.919 362.25 805.27 362.25 811.621 367.399 816.77 373.75 816.77L379.44 816.77 379.44 844.32 373.75 844.32C367.399 844.32 362.25 849.469 362.25 855.82 362.25 862.171 367.399 867.32 373.75 867.32L379.44 867.32 379.44 906.32C379.437 909.371 380.648 912.297 382.805 914.455 384.963 916.612 387.889 917.823 390.94 917.82L447.55 917.82C453.054 949.101 480.228 971.911 511.99 971.911 543.752 971.911 570.926 949.101 576.43 917.82L633 917.82C636.051 917.823 638.977 916.612 641.135 914.455 643.292 912.297 644.503 909.371 644.5 906.32L644.5 867.32 650.18 867.32C656.531 867.32 661.68 862.171 661.68 855.82 661.68 849.469 656.531 844.32 650.18 844.32L644.5 844.32 644.5 816.81 650.18 816.81C656.531 816.81 661.68 811.661 661.68 805.31 661.68 798.959 656.531 793.81 650.18 793.81L644.5 793.81 644.5 754.81C644.54 740.58 651.48 727.23 661.39 720M372.39 699.2C258.15 645.35 184.32 529 184.32 402.68 184.32 222 331.32 75 512 75 692.68 75 839.68 222 839.68 402.68 839.68 528.95 765.85 645.35 649.91 700.23 635.465 710.383 625.628 725.844 622.55 743.23L580.68 743.23 580.68 537.11 644.2 537.11C708.561 537.079 761.489 486.38 764.288 422.08 767.087 357.78 718.765 302.674 654.65 297.05 649.26 268.87 623.65 247.62 593.4 249.84 572.31 211.9 532.04 187.84 488.55 187.84 426.427 187.917 374.557 235.235 368.79 297.09 304.857 303.054 256.886 358.193 259.826 422.336 262.766 486.48 315.579 536.999 379.79 537.09L443.31 537.09 443.31 743.27 401.42 743.27C398.35 726 388.35 710.31 372.38 699.24L372.39 699.2M466.32 743.2 466.32 537.11 557.69 537.11 557.69 743.27 466.32 743.2M379.79 319.6C401.23 319.6 420.49 328.79 432.69 344.81 443.59 359.11 447.23 376.75 442.69 393.2 441.001 399.315 444.579 405.644 450.69 407.35 451.688 407.618 452.717 407.756 453.75 407.76 458.925 407.754 463.461 404.298 464.84 399.31 471.29 375.89 466.24 350.94 450.96 330.87 436.86 312.36 415.83 301.1 392.29 297.97 397.43 249.15 438.35 210.83 488.52 210.83 525.98 210.83 560.52 232.99 576.52 267.28 578.804 272.207 584.23 274.858 589.52 273.63 600.014 271.159 611.062 273.644 619.488 280.37 627.914 287.096 632.784 297.319 632.7 308.1 632.7 338.38 607.15 347.84 605.82 348.32 600.478 350.117 597.229 355.524 598.148 361.084 599.067 366.645 603.884 370.718 609.52 370.7 610.758 370.703 611.988 370.501 613.16 370.1 626.16 365.76 649.27 350.19 654.55 320.65 703.27 325.89 741.46 366.77 741.46 416.86 741.399 470.548 697.888 514.055 644.2 514.11 616.404 514.082 593.878 491.556 593.85 463.76 593.85 457.409 588.701 452.26 582.35 452.26 575.999 452.26 570.85 457.409 570.85 463.76 570.874 482.527 578.134 500.561 591.12 514.11L379.79 514.11C344.809 514.465 312.333 496.006 294.739 465.769 277.145 435.533 277.145 398.177 294.739 367.941 312.333 337.704 344.809 319.245 379.79 319.6M512 949C492.915 948.963 476.174 936.261 471 917.89L553 917.89C547.829 936.263 531.086 948.967 512 949M621.54 894.89 402.44 894.89 402.44 867.36 621.54 867.36 621.54 894.89M621.54 844.36 402.44 844.36 402.44 816.81 621.54 816.81 621.54 844.36M402.44 793.81 402.44 766.27 621.54 766.27 621.54 793.81 402.44 793.81" fill="#37474F"/></g></svg>