<svg width="1156" height="396" xmlns="http://www.w3.org/2000/svg" xmlns:xlink="http://www.w3.org/1999/xlink" overflow="hidden"><g transform="translate(-97 -176)"><path d="M98.4349 177.5 181.417 177.5 181.417 213.635 98.4349 213.635Z" fill="#4472C4" fill-rule="evenodd"/><path d="M181.417 177.5 244.157 177.5 244.157 213.635 181.417 213.635Z" fill="#4472C4" fill-rule="evenodd"/><path d="M244.157 177.5 311.433 177.5 311.433 213.635 244.157 213.635Z" fill="#4472C4" fill-rule="evenodd"/><path d="M311.433 177.5 428.806 177.5 428.806 213.635 311.433 213.635Z" fill="#4472C4" fill-rule="evenodd"/><path d="M428.806 177.5 546.178 177.5 546.178 213.635 428.806 213.635Z" fill="#4472C4" fill-rule="evenodd"/><path d="M546.178 177.5 663.551 177.5 663.551 213.635 546.178 213.635Z" fill="#4472C4" fill-rule="evenodd"/><path d="M663.551 177.5 780.923 177.5 780.923 213.635 663.551 213.635Z" fill="#4472C4" fill-rule="evenodd"/><path d="M780.923 177.5 898.296 177.5 898.296 213.635 780.923 213.635Z" fill="#4472C4" fill-rule="evenodd"/><path d="M898.296 177.5 1015.67 177.5 1015.67 213.635 898.296 213.635Z" fill="#4472C4" fill-rule="evenodd"/><path d="M1015.67 177.5 1133.04 177.5 1133.04 213.635 1015.67 213.635Z" fill="#4472C4" fill-rule="evenodd"/><path d="M1133.04 177.5 1250.41 177.5 1250.41 213.635 1133.04 213.635Z" fill="#4472C4" fill-rule="evenodd"/><path d="M98.4349 213.635 181.417 213.635 181.417 237.194 98.4349 237.194Z" fill="#E9EBF5" fill-rule="evenodd"/><path d="M181.417 213.635 244.157 213.635 244.157 237.194 181.417 237.194Z" fill="#E9EBF5" fill-rule="evenodd"/><path d="M244.157 213.635 311.433 213.635 311.433 237.194 244.157 237.194Z" fill="#E9EBF5" fill-rule="evenodd"/><path d="M311.433 213.635 428.806 213.635 428.806 237.194 311.433 237.194Z" fill="#E9EBF5" fill-rule="evenodd"/><path d="M428.806 213.635 546.178 213.635 546.178 237.194 428.806 237.194Z" fill="#E9EBF5" fill-rule="evenodd"/><path d="M546.178 213.635 663.551 213.635 663.551 237.194 546.178 237.194Z" fill="#E9EBF5" fill-rule="evenodd"/><path d="M663.551 213.635 780.923 213.635 780.923 237.194 663.551 237.194Z" fill="#E9EBF5" fill-rule="evenodd"/><path d="M780.923 213.635 898.296 213.635 898.296 237.194 780.923 237.194Z" fill="#E9EBF5" fill-rule="evenodd"/><path d="M898.296 213.635 1015.67 213.635 1015.67 237.194 898.296 237.194Z" fill="#E9EBF5" fill-rule="evenodd"/><path d="M1015.67 213.635 1133.04 213.635 1133.04 237.194 1015.67 237.194Z" fill="#E9EBF5" fill-rule="evenodd"/><path d="M1133.04 213.635 1250.41 213.635 1250.41 237.194 1133.04 237.194Z" fill="#E9EBF5" fill-rule="evenodd"/><path d="M98.4349 237.194 181.417 237.194 181.417 260.753 98.4349 260.753Z" fill="#E9EBF5" fill-rule="evenodd"/><path d="M181.417 237.194 244.157 237.194 244.157 260.753 181.417 260.753Z" fill="#E9EBF5" fill-rule="evenodd"/><path d="M244.157 237.194 311.433 237.194 311.433 260.753 244.157 260.753Z" fill="#E9EBF5" fill-rule="evenodd"/><path d="M311.433 237.194 428.806 237.194 428.806 260.753 311.433 260.753Z" fill="#E9EBF5" fill-rule="evenodd"/><path d="M428.806 237.194 546.178 237.194 546.178 260.753 428.806 260.753Z" fill="#E9EBF5" fill-rule="evenodd"/><path d="M546.178 237.194 663.551 237.194 663.551 260.753 546.178 260.753Z" fill="#E9EBF5" fill-rule="evenodd"/><path d="M663.551 237.194 780.923 237.194 780.923 260.753 663.551 260.753Z" fill="#F4B183" fill-rule="evenodd"/><path d="M780.923 237.194 898.296 237.194 898.296 260.753 780.923 260.753Z" fill="#E9EBF5" fill-rule="evenodd"/><path d="M898.296 237.194 1015.67 237.194 1015.67 260.753 898.296 260.753Z" fill="#E9EBF5" fill-rule="evenodd"/><path d="M1015.67 237.194 1133.04 237.194 1133.04 260.753 1015.67 260.753Z" fill="#E9EBF5" fill-rule="evenodd"/><path d="M1133.04 237.194 1250.41 237.194 1250.41 260.753 1133.04 260.753Z" fill="#E9EBF5" fill-rule="evenodd"/><path d="M98.4349 260.753 181.417 260.753 181.417 284.312 98.4349 284.312Z" fill="#E9EBF5" fill-rule="evenodd"/><path d="M181.417 260.753 244.157 260.753 244.157 284.312 181.417 284.312Z" fill="#E9EBF5" fill-rule="evenodd"/><path d="M244.157 260.753 311.433 260.753 311.433 284.312 244.157 284.312Z" fill="#E9EBF5" fill-rule="evenodd"/><path d="M311.433 260.753 428.806 260.753 428.806 284.312 311.433 284.312Z" fill="#F4B183" fill-rule="evenodd"/><path d="M428.806 260.753 546.178 260.753 546.178 284.312 428.806 284.312Z" fill="#E9EBF5" fill-rule="evenodd"/><path d="M546.178 260.753 663.551 260.753 663.551 284.312 546.178 284.312Z" fill="#E9EBF5" fill-rule="evenodd"/><path d="M663.551 260.753 780.923 260.753 780.923 284.312 663.551 284.312Z" fill="#E9EBF5" fill-rule="evenodd"/><path d="M780.923 260.753 898.296 260.753 898.296 284.312 780.923 284.312Z" fill="#E9EBF5" fill-rule="evenodd"/><path d="M898.296 260.753 1015.67 260.753 1015.67 284.312 898.296 284.312Z" fill="#F4B183" fill-rule="evenodd"/><path d="M1015.67 260.753 1133.04 260.753 1133.04 284.312 1015.67 284.312Z" fill="#E9EBF5" fill-rule="evenodd"/><path d="M1133.04 260.753 1250.41 260.753 1250.41 284.312 1133.04 284.312Z" fill="#F4B183" fill-rule="evenodd"/><path d="M98.4349 284.312 181.417 284.312 181.417 307.871 98.4349 307.871Z" fill="#E9EBF5" fill-rule="evenodd"/><path d="M181.417 284.312 244.157 284.312 244.157 307.871 181.417 307.871Z" fill="#E9EBF5" fill-rule="evenodd"/><path d="M244.157 284.312 311.433 284.312 311.433 307.871 244.157 307.871Z" fill="#E9EBF5" fill-rule="evenodd"/><path d="M311.433 284.312 428.806 284.312 428.806 307.871 311.433 307.871Z" fill="#F4B183" fill-rule="evenodd"/><path d="M428.806 284.312 546.178 284.312 546.178 307.871 428.806 307.871Z" fill="#E9EBF5" fill-rule="evenodd"/><path d="M546.178 284.312 663.551 284.312 663.551 307.871 546.178 307.871Z" fill="#F4B183" fill-rule="evenodd"/><path d="M663.551 284.312 780.923 284.312 780.923 307.871 663.551 307.871Z" fill="#E9EBF5" fill-rule="evenodd"/><path d="M780.923 284.312 898.296 284.312 898.296 307.871 780.923 307.871Z" fill="#F4B183" fill-rule="evenodd"/><path d="M898.296 284.312 1015.67 284.312 1015.67 307.871 898.296 307.871Z" fill="#E9EBF5" fill-rule="evenodd"/><path d="M1015.67 284.312 1133.04 284.312 1133.04 307.871 1015.67 307.871Z" fill="#E9EBF5" fill-rule="evenodd"/><path d="M1133.04 284.312 1250.41 284.312 1250.41 307.871 1133.04 307.871Z" fill="#E9EBF5" fill-rule="evenodd"/><path d="M98.4349 307.871 181.417 307.871 181.417 331.431 98.4349 331.431Z" fill="#E9EBF5" fill-rule="evenodd"/><path d="M181.417 307.871 244.157 307.871 244.157 331.431 181.417 331.431Z" fill="#E9EBF5" fill-rule="evenodd"/><path d="M244.157 307.871 311.433 307.871 311.433 331.431 244.157 331.431Z" fill="#E9EBF5" fill-rule="evenodd"/><path d="M311.433 307.871 428.806 307.871 428.806 331.431 311.433 331.431Z" fill="#E9EBF5" fill-rule="evenodd"/><path d="M428.806 307.871 546.178 307.871 546.178 331.431 428.806 331.431Z" fill="#E9EBF5" fill-rule="evenodd"/><path d="M546.178 307.871 663.551 307.871 663.551 331.431 546.178 331.431Z" fill="#E9EBF5" fill-rule="evenodd"/><path d="M663.551 307.871 780.923 307.871 780.923 331.431 663.551 331.431Z" fill="#E9EBF5" fill-rule="evenodd"/><path d="M780.923 307.871 898.296 307.871 898.296 331.431 780.923 331.431Z" fill="#E9EBF5" fill-rule="evenodd"/><path d="M898.296 307.871 1015.67 307.871 1015.67 331.431 898.296 331.431Z" fill="#E9EBF5" fill-rule="evenodd"/><path d="M1015.67 307.871 1133.04 307.871 1133.04 331.431 1015.67 331.431Z" fill="#E9EBF5" fill-rule="evenodd"/><path d="M1133.04 307.871 1250.41 307.871 1250.41 331.431 1133.04 331.431Z" fill="#E9EBF5" fill-rule="evenodd"/><path d="M98.4349 331.431 181.417 331.431 181.417 354.99 98.4349 354.99Z" fill="#E9EBF5" fill-rule="evenodd"/><path d="M181.417 331.431 244.157 331.431 244.157 354.99 181.417 354.99Z" fill="#E9EBF5" fill-rule="evenodd"/><path d="M244.157 331.431 311.433 331.431 311.433 354.99 244.157 354.99Z" fill="#E9EBF5" fill-rule="evenodd"/><path d="M311.433 331.431 428.806 331.431 428.806 354.99 311.433 354.99Z" fill="#F4B183" fill-rule="evenodd"/><path d="M428.806 331.431 546.178 331.431 546.178 354.99 428.806 354.99Z" fill="#E9EBF5" fill-rule="evenodd"/><path d="M546.178 331.431 663.551 331.431 663.551 354.99 546.178 354.99Z" fill="#E9EBF5" fill-rule="evenodd"/><path d="M663.551 331.431 780.923 331.431 780.923 354.99 663.551 354.99Z" fill="#F4B183" fill-rule="evenodd"/><path d="M780.923 331.431 898.296 331.431 898.296 354.99 780.923 354.99Z" fill="#E9EBF5" fill-rule="evenodd"/><path d="M898.296 331.431 1015.67 331.431 1015.67 354.99 898.296 354.99Z" fill="#E9EBF5" fill-rule="evenodd"/><path d="M1015.67 331.431 1133.04 331.431 1133.04 354.99 1015.67 354.99Z" fill="#E9EBF5" fill-rule="evenodd"/><path d="M1133.04 331.431 1250.41 331.431 1250.41 354.99 1133.04 354.99Z" fill="#E9EBF5" fill-rule="evenodd"/><path d="M98.4349 354.99 181.417 354.99 181.417 378.549 98.4349 378.549Z" fill="#E9EBF5" fill-rule="evenodd"/><path d="M181.417 354.99 244.157 354.99 244.157 378.549 181.417 378.549Z" fill="#E9EBF5" fill-rule="evenodd"/><path d="M244.157 354.99 311.433 354.99 311.433 378.549 244.157 378.549Z" fill="#E9EBF5" fill-rule="evenodd"/><path d="M311.433 354.99 428.806 354.99 428.806 378.549 311.433 378.549Z" fill="#F4B183" fill-rule="evenodd"/><path d="M428.806 354.99 546.178 354.99 546.178 378.549 428.806 378.549Z" fill="#E9EBF5" fill-rule="evenodd"/><path d="M546.178 354.99 663.551 354.99 663.551 378.549 546.178 378.549Z" fill="#E9EBF5" fill-rule="evenodd"/><path d="M663.551 354.99 780.923 354.99 780.923 378.549 663.551 378.549Z" fill="#E9EBF5" fill-rule="evenodd"/><path d="M780.923 354.99 898.296 354.99 898.296 378.549 780.923 378.549Z" fill="#E9EBF5" fill-rule="evenodd"/><path d="M898.296 354.99 1015.67 354.99 1015.67 378.549 898.296 378.549Z" fill="#F4B183" fill-rule="evenodd"/><path d="M1015.67 354.99 1133.04 354.99 1133.04 378.549 1015.67 378.549Z" fill="#E9EBF5" fill-rule="evenodd"/><path d="M1133.04 354.99 1250.41 354.99 1250.41 378.549 1133.04 378.549Z" fill="#E9EBF5" fill-rule="evenodd"/><path d="M98.4349 378.549 181.417 378.549 181.417 402.108 98.4349 402.108Z" fill="#E9EBF5" fill-rule="evenodd"/><path d="M181.417 378.549 244.157 378.549 244.157 402.108 181.417 402.108Z" fill="#E9EBF5" fill-rule="evenodd"/><path d="M244.157 378.549 311.433 378.549 311.433 402.108 244.157 402.108Z" fill="#E9EBF5" fill-rule="evenodd"/><path d="M311.433 378.549 428.806 378.549 428.806 402.108 311.433 402.108Z" fill="#F4B183" fill-rule="evenodd"/><path d="M428.806 378.549 546.178 378.549 546.178 402.108 428.806 402.108Z" fill="#E9EBF5" fill-rule="evenodd"/><path d="M546.178 378.549 663.551 378.549 663.551 402.108 546.178 402.108Z" fill="#F4B183" fill-rule="evenodd"/><path d="M663.551 378.549 780.923 378.549 780.923 402.108 663.551 402.108Z" fill="#E9EBF5" fill-rule="evenodd"/><path d="M780.923 378.549 898.296 378.549 898.296 402.108 780.923 402.108Z" fill="#E9EBF5" fill-rule="evenodd"/><path d="M898.296 378.549 1015.67 378.549 1015.67 402.108 898.296 402.108Z" fill="#E9EBF5" fill-rule="evenodd"/><path d="M1015.67 378.549 1133.04 378.549 1133.04 402.108 1015.67 402.108Z" fill="#E9EBF5" fill-rule="evenodd"/><path d="M1133.04 378.549 1250.41 378.549 1250.41 402.108 1133.04 402.108Z" fill="#E9EBF5" fill-rule="evenodd"/><path d="M98.4349 402.108 181.417 402.108 181.417 425.667 98.4349 425.667Z" fill="#E9EBF5" fill-rule="evenodd"/><path d="M181.417 402.108 244.157 402.108 244.157 425.667 181.417 425.667Z" fill="#E9EBF5" fill-rule="evenodd"/><path d="M244.157 402.108 311.433 402.108 311.433 425.667 244.157 425.667Z" fill="#E9EBF5" fill-rule="evenodd"/><path d="M311.433 402.108 428.806 402.108 428.806 425.667 311.433 425.667Z" fill="#F4B183" fill-rule="evenodd"/><path d="M428.806 402.108 546.178 402.108 546.178 425.667 428.806 425.667Z" fill="#E9EBF5" fill-rule="evenodd"/><path d="M546.178 402.108 663.551 402.108 663.551 425.667 546.178 425.667Z" fill="#E9EBF5" fill-rule="evenodd"/><path d="M663.551 402.108 780.923 402.108 780.923 425.667 663.551 425.667Z" fill="#E9EBF5" fill-rule="evenodd"/><path d="M780.923 402.108 898.296 402.108 898.296 425.667 780.923 425.667Z" fill="#E9EBF5" fill-rule="evenodd"/><path d="M898.296 402.108 1015.67 402.108 1015.67 425.667 898.296 425.667Z" fill="#E9EBF5" fill-rule="evenodd"/><path d="M1015.67 402.108 1133.04 402.108 1133.04 425.667 1015.67 425.667Z" fill="#E9EBF5" fill-rule="evenodd"/><path d="M1133.04 402.108 1250.41 402.108 1250.41 425.667 1133.04 425.667Z" fill="#E9EBF5" fill-rule="evenodd"/><path d="M98.4349 425.667 181.417 425.667 181.417 449.226 98.4349 449.226Z" fill="#E9EBF5" fill-rule="evenodd"/><path d="M181.417 425.667 244.157 425.667 244.157 449.226 181.417 449.226Z" fill="#E9EBF5" fill-rule="evenodd"/><path d="M244.157 425.667 311.433 425.667 311.433 449.226 244.157 449.226Z" fill="#E9EBF5" fill-rule="evenodd"/><path d="M311.433 425.667 428.806 425.667 428.806 449.226 311.433 449.226Z" fill="#F4B183" fill-rule="evenodd"/><path d="M428.806 425.667 546.178 425.667 546.178 449.226 428.806 449.226Z" fill="#E9EBF5" fill-rule="evenodd"/><path d="M546.178 425.667 663.551 425.667 663.551 449.226 546.178 449.226Z" fill="#E9EBF5" fill-rule="evenodd"/><path d="M663.551 425.667 780.923 425.667 780.923 449.226 663.551 449.226Z" fill="#F4B183" fill-rule="evenodd"/><path d="M780.923 425.667 898.296 425.667 898.296 449.226 780.923 449.226Z" fill="#E9EBF5" fill-rule="evenodd"/><path d="M898.296 425.667 1015.67 425.667 1015.67 449.226 898.296 449.226Z" fill="#E9EBF5" fill-rule="evenodd"/><path d="M1015.67 425.667 1133.04 425.667 1133.04 449.226 1015.67 449.226Z" fill="#F4B183" fill-rule="evenodd"/><path d="M1133.04 425.667 1250.41 425.667 1250.41 449.226 1133.04 449.226Z" fill="#E9EBF5" fill-rule="evenodd"/><path d="M98.4349 449.226 181.417 449.226 181.417 472.785 98.4349 472.785Z" fill="#E9EBF5" fill-rule="evenodd"/><path d="M181.417 449.226 244.157 449.226 244.157 472.785 181.417 472.785Z" fill="#E9EBF5" fill-rule="evenodd"/><path d="M244.157 449.226 311.433 449.226 311.433 472.785 244.157 472.785Z" fill="#E9EBF5" fill-rule="evenodd"/><path d="M311.433 449.226 428.806 449.226 428.806 472.785 311.433 472.785Z" fill="#E9EBF5" fill-rule="evenodd"/><path d="M428.806 449.226 546.178 449.226 546.178 472.785 428.806 472.785Z" fill="#E9EBF5" fill-rule="evenodd"/><path d="M546.178 449.226 663.551 449.226 663.551 472.785 546.178 472.785Z" fill="#E9EBF5" fill-rule="evenodd"/><path d="M663.551 449.226 780.923 449.226 780.923 472.785 663.551 472.785Z" fill="#E9EBF5" fill-rule="evenodd"/><path d="M780.923 449.226 898.296 449.226 898.296 472.785 780.923 472.785Z" fill="#E9EBF5" fill-rule="evenodd"/><path d="M898.296 449.226 1015.67 449.226 1015.67 472.785 898.296 472.785Z" fill="#E9EBF5" fill-rule="evenodd"/><path d="M1015.67 449.226 1133.04 449.226 1133.04 472.785 1015.67 472.785Z" fill="#E9EBF5" fill-rule="evenodd"/><path d="M1133.04 449.226 1250.41 449.226 1250.41 472.785 1133.04 472.785Z" fill="#E9EBF5" fill-rule="evenodd"/><path d="M98.4349 472.785 181.417 472.785 181.417 496.344 98.4349 496.344Z" fill="#E9EBF5" fill-rule="evenodd"/><path d="M181.417 472.785 244.157 472.785 244.157 496.344 181.417 496.344Z" fill="#E9EBF5" fill-rule="evenodd"/><path d="M244.157 472.785 311.433 472.785 311.433 496.344 244.157 496.344Z" fill="#E9EBF5" fill-rule="evenodd"/><path d="M311.433 472.785 428.806 472.785 428.806 496.344 311.433 496.344Z" fill="#E9EBF5" fill-rule="evenodd"/><path d="M428.806 472.785 546.178 472.785 546.178 496.344 428.806 496.344Z" fill="#E9EBF5" fill-rule="evenodd"/><path d="M546.178 472.785 663.551 472.785 663.551 496.344 546.178 496.344Z" fill="#E9EBF5" fill-rule="evenodd"/><path d="M663.551 472.785 780.923 472.785 780.923 496.344 663.551 496.344Z" fill="#E9EBF5" fill-rule="evenodd"/><path d="M780.923 472.785 898.296 472.785 898.296 496.344 780.923 496.344Z" fill="#E9EBF5" fill-rule="evenodd"/><path d="M898.296 472.785 1015.67 472.785 1015.67 496.344 898.296 496.344Z" fill="#E9EBF5" fill-rule="evenodd"/><path d="M1015.67 472.785 1133.04 472.785 1133.04 496.344 1015.67 496.344Z" fill="#E9EBF5" fill-rule="evenodd"/><path d="M1133.04 472.785 1250.41 472.785 1250.41 496.344 1133.04 496.344Z" fill="#E9EBF5" fill-rule="evenodd"/><path d="M98.4349 496.344 181.417 496.344 181.417 519.903 98.4349 519.903Z" fill="#E9EBF5" fill-rule="evenodd"/><path d="M181.417 496.344 244.157 496.344 244.157 519.903 181.417 519.903Z" fill="#E9EBF5" fill-rule="evenodd"/><path d="M244.157 496.344 311.433 496.344 311.433 519.903 244.157 519.903Z" fill="#E9EBF5" fill-rule="evenodd"/><path d="M311.433 496.344 428.806 496.344 428.806 519.903 311.433 519.903Z" fill="#F4B183" fill-rule="evenodd"/><path d="M428.806 496.344 546.178 496.344 546.178 519.903 428.806 519.903Z" fill="#E9EBF5" fill-rule="evenodd"/><path d="M546.178 496.344 663.551 496.344 663.551 519.903 546.178 519.903Z" fill="#E9EBF5" fill-rule="evenodd"/><path d="M663.551 496.344 780.923 496.344 780.923 519.903 663.551 519.903Z" fill="#E9EBF5" fill-rule="evenodd"/><path d="M780.923 496.344 898.296 496.344 898.296 519.903 780.923 519.903Z" fill="#E9EBF5" fill-rule="evenodd"/><path d="M898.296 496.344 1015.67 496.344 1015.67 519.903 898.296 519.903Z" fill="#E9EBF5" fill-rule="evenodd"/><path d="M1015.67 496.344 1133.04 496.344 1133.04 519.903 1015.67 519.903Z" fill="#E9EBF5" fill-rule="evenodd"/><path d="M1133.04 496.344 1250.41 496.344 1250.41 519.903 1133.04 519.903Z" fill="#E9EBF5" fill-rule="evenodd"/><path d="M98.4349 519.903 181.417 519.903 181.417 543.462 98.4349 543.462Z" fill="#E9EBF5" fill-rule="evenodd"/><path d="M181.417 519.903 244.157 519.903 244.157 543.462 181.417 543.462Z" fill="#E9EBF5" fill-rule="evenodd"/><path d="M244.157 519.903 311.433 519.903 311.433 543.462 244.157 543.462Z" fill="#E9EBF5" fill-rule="evenodd"/><path d="M311.433 519.903 428.806 519.903 428.806 543.462 311.433 543.462Z" fill="#F4B183" fill-rule="evenodd"/><path d="M428.806 519.903 546.178 519.903 546.178 543.462 428.806 543.462Z" fill="#E9EBF5" fill-rule="evenodd"/><path d="M546.178 519.903 663.551 519.903 663.551 543.462 546.178 543.462Z" fill="#E9EBF5" fill-rule="evenodd"/><path d="M663.551 519.903 780.923 519.903 780.923 543.462 663.551 543.462Z" fill="#F4B183" fill-rule="evenodd"/><path d="M780.923 519.903 898.296 519.903 898.296 543.462 780.923 543.462Z" fill="#E9EBF5" fill-rule="evenodd"/><path d="M898.296 519.903 1015.67 519.903 1015.67 543.462 898.296 543.462Z" fill="#F4B183" fill-rule="evenodd"/><path d="M1015.67 519.903 1133.04 519.903 1133.04 543.462 1015.67 543.462Z" fill="#E9EBF5" fill-rule="evenodd"/><path d="M1133.04 519.903 1250.41 519.903 1250.41 543.462 1133.04 543.462Z" fill="#E9EBF5" fill-rule="evenodd"/><path d="M98.4349 543.462 181.417 543.462 181.417 567.021 98.4349 567.021Z" fill="#E9EBF5" fill-rule="evenodd"/><path d="M181.417 543.462 244.157 543.462 244.157 567.021 181.417 567.021Z" fill="#E9EBF5" fill-rule="evenodd"/><path d="M244.157 543.462 311.433 543.462 311.433 567.021 244.157 567.021Z" fill="#E9EBF5" fill-rule="evenodd"/><path d="M311.433 543.462 428.806 543.462 428.806 567.021 311.433 567.021Z" fill="#F4B183" fill-rule="evenodd"/><path d="M428.806 543.462 546.178 543.462 546.178 567.021 428.806 567.021Z" fill="#F4B183" fill-rule="evenodd"/><path d="M546.178 543.462 663.551 543.462 663.551 567.021 546.178 567.021Z" fill="#E9EBF5" fill-rule="evenodd"/><path d="M663.551 543.462 780.923 543.462 780.923 567.021 663.551 567.021Z" fill="#E9EBF5" fill-rule="evenodd"/><path d="M780.923 543.462 898.296 543.462 898.296 567.021 780.923 567.021Z" fill="#E9EBF5" fill-rule="evenodd"/><path d="M898.296 543.462 1015.67 543.462 1015.67 567.021 898.296 567.021Z" fill="#E9EBF5" fill-rule="evenodd"/><path d="M1015.67 543.462 1133.04 543.462 1133.04 567.021 1015.67 567.021Z" fill="#E9EBF5" fill-rule="evenodd"/><path d="M1133.04 543.462 1250.41 543.462 1250.41 567.021 1133.04 567.021Z" fill="#E9EBF5" fill-rule="evenodd"/><path d="M181.417 176.833 181.417 567.688" stroke="#FFFFFF" stroke-width="1.33333" stroke-linejoin="round" stroke-miterlimit="10" fill="none" fill-rule="evenodd"/><path d="M244.157 176.833 244.157 567.688" stroke="#FFFFFF" stroke-width="1.33333" stroke-linejoin="round" stroke-miterlimit="10" fill="none" fill-rule="evenodd"/><path d="M311.433 176.833 311.433 567.688" stroke="#FFFFFF" stroke-width="1.33333" stroke-linejoin="round" stroke-miterlimit="10" fill="none" fill-rule="evenodd"/><path d="M428.806 176.833 428.806 567.688" stroke="#FFFFFF" stroke-width="1.33333" stroke-linejoin="round" stroke-miterlimit="10" fill="none" fill-rule="evenodd"/><path d="M546.178 176.833 546.178 567.688" stroke="#FFFFFF" stroke-width="1.33333" stroke-linejoin="round" stroke-miterlimit="10" fill="none" fill-rule="evenodd"/><path d="M663.551 176.833 663.551 567.688" stroke="#FFFFFF" stroke-width="1.33333" stroke-linejoin="round" stroke-miterlimit="10" fill="none" fill-rule="evenodd"/><path d="M780.923 176.833 780.923 567.688" stroke="#FFFFFF" stroke-width="1.33333" stroke-linejoin="round" stroke-miterlimit="10" fill="none" fill-rule="evenodd"/><path d="M898.296 176.833 898.296 567.688" stroke="#FFFFFF" stroke-width="1.33333" stroke-linejoin="round" stroke-miterlimit="10" fill="none" fill-rule="evenodd"/><path d="M1015.67 176.833 1015.67 567.688" stroke="#FFFFFF" stroke-width="1.33333" stroke-linejoin="round" stroke-miterlimit="10" fill="none" fill-rule="evenodd"/><path d="M1133.04 176.833 1133.04 567.688" stroke="#FFFFFF" stroke-width="1.33333" stroke-linejoin="round" stroke-miterlimit="10" fill="none" fill-rule="evenodd"/><path d="M97.7682 213.635 1251.08 213.635" stroke="#FFFFFF" stroke-width="1.33333" stroke-linejoin="round" stroke-miterlimit="10" fill="none" fill-rule="evenodd"/><path d="M97.7682 237.194 1251.08 237.194" stroke="#FFFFFF" stroke-width="1.33333" stroke-linejoin="round" stroke-miterlimit="10" fill="none" fill-rule="evenodd"/><path d="M97.7682 260.753 1251.08 260.753" stroke="#FFFFFF" stroke-width="1.33333" stroke-linejoin="round" stroke-miterlimit="10" fill="none" fill-rule="evenodd"/><path d="M97.7682 284.312 1251.08 284.312" stroke="#FFFFFF" stroke-width="1.33333" stroke-linejoin="round" stroke-miterlimit="10" fill="none" fill-rule="evenodd"/><path d="M97.7682 307.871 1251.08 307.871" stroke="#FFFFFF" stroke-width="1.33333" stroke-linejoin="round" stroke-miterlimit="10" fill="none" fill-rule="evenodd"/><path d="M97.7682 331.431 1251.08 331.431" stroke="#FFFFFF" stroke-width="1.33333" stroke-linejoin="round" stroke-miterlimit="10" fill="none" fill-rule="evenodd"/><path d="M97.7682 354.99 1251.08 354.99" stroke="#FFFFFF" stroke-width="1.33333" stroke-linejoin="round" stroke-miterlimit="10" fill="none" fill-rule="evenodd"/><path d="M97.7682 378.549 1251.08 378.549" stroke="#FFFFFF" stroke-width="1.33333" stroke-linejoin="round" stroke-miterlimit="10" fill="none" fill-rule="evenodd"/><path d="M97.7682 402.108 1251.08 402.108" stroke="#FFFFFF" stroke-width="1.33333" stroke-linejoin="round" stroke-miterlimit="10" fill="none" fill-rule="evenodd"/><path d="M97.7682 425.667 1251.08 425.667" stroke="#FFFFFF" stroke-width="1.33333" stroke-linejoin="round" stroke-miterlimit="10" fill="none" fill-rule="evenodd"/><path d="M97.7682 449.226 1251.08 449.226" stroke="#FFFFFF" stroke-width="1.33333" stroke-linejoin="round" stroke-miterlimit="10" fill="none" fill-rule="evenodd"/><path d="M97.7682 472.785 1251.08 472.785" stroke="#FFFFFF" stroke-width="1.33333" stroke-linejoin="round" stroke-miterlimit="10" fill="none" fill-rule="evenodd"/><path d="M97.7682 496.344 1251.08 496.344" stroke="#FFFFFF" stroke-width="1.33333" stroke-linejoin="round" stroke-miterlimit="10" fill="none" fill-rule="evenodd"/><path d="M97.7682 519.903 1251.08 519.903" stroke="#FFFFFF" stroke-width="1.33333" stroke-linejoin="round" stroke-miterlimit="10" fill="none" fill-rule="evenodd"/><path d="M97.7682 543.462 1251.08 543.462" stroke="#FFFFFF" stroke-width="1.33333" stroke-linejoin="round" stroke-miterlimit="10" fill="none" fill-rule="evenodd"/><path d="M98.4349 176.833 98.4349 567.688" stroke="#FFFFFF" stroke-width="1.33333" stroke-linejoin="round" stroke-miterlimit="10" fill="none" fill-rule="evenodd"/><path d="M1250.41 176.833 1250.41 567.688" stroke="#FFFFFF" stroke-width="1.33333" stroke-linejoin="round" stroke-miterlimit="10" fill="none" fill-rule="evenodd"/><path d="M97.7682 177.5 1251.08 177.5" stroke="#FFFFFF" stroke-width="1.33333" stroke-linejoin="round" stroke-miterlimit="10" fill="none" fill-rule="evenodd"/><path d="M97.7682 567.021 1251.08 567.021" stroke="#FFFFFF" stroke-width="1.33333" stroke-linejoin="round" stroke-miterlimit="10" fill="none" fill-rule="evenodd"/><g><text fill="#FFFFFF" font-family="DengXian,DengXian_MSFontService,sans-serif" font-weight="700" font-size="14" transform="translate(1140.6 200)">LysoPE (18:3)</text></g><g><text fill="#FFFFFF" font-family="DengXian,DengXian_MSFontService,sans-serif" font-weight="700" font-size="14" transform="translate(1023.23 200)">LysoPE (18:2)</text></g><g><text fill="#FFFFFF" font-family="DengXian,DengXian_MSFontService,sans-serif" font-weight="700" font-size="14" transform="translate(905.855 200)">LysoPE (18:1)</text></g><g><text fill="#FFFFFF" font-family="DengXian,DengXian_MSFontService,sans-serif" font-weight="700" font-size="14" transform="translate(788.483 200)">LysoPE (18:0)</text></g><g><text fill="#FFFFFF" font-family="DengXian,DengXian_MSFontService,sans-serif" font-weight="700" font-size="14" transform="translate(671.11 200)">LysoPE (17:0)</text></g><g><text fill="#FFFFFF" font-family="DengXian,DengXian_MSFontService,sans-serif" font-weight="700" font-size="14" transform="translate(553.737 200)">LysoPE (16:1)</text></g><g><text fill="#FFFFFF" font-family="DengXian,DengXian_MSFontService,sans-serif" font-weight="700" font-size="14" transform="translate(436.365 200)">LysoPE (16:0)</text></g><g><text fill="#FFFFFF" font-family="DengXian,DengXian_MSFontService,sans-serif" font-weight="700" font-size="14" transform="translate(318.992 200)">LysoPE (15:0)</text></g><g><text fill="#FFFFFF" font-family="DengXian,DengXian_MSFontService,sans-serif" font-weight="700" font-size="14" transform="translate(251.717 200)">group</text></g><g><text fill="#FFFFFF" font-family="DengXian,DengXian_MSFontService,sans-serif" font-weight="700" font-size="14" transform="translate(188.976 200)">time</text></g><g><text fill="#FFFFFF" font-family="DengXian,DengXian_MSFontService,sans-serif" font-weight="700" font-size="14" transform="translate(105.994 200)">Sample</text></g><g><text font-family="DengXian,DengXian_MSFontService,sans-serif" font-weight="400" font-size="13" transform="translate(1140.6 229)">75.1274</text></g><text font-family="DengXian,DengXian_MSFontService,sans-serif" font-weight="400" font-size="13" transform="translate(1185.6 229)">2</text><g><text font-family="DengXian,DengXian_MSFontService,sans-serif" font-weight="400" font-size="13" transform="translate(1023.23 229)">2757.685</text></g><g><text font-family="DengXian,DengXian_MSFontService,sans-serif" font-weight="400" font-size="13" transform="translate(905.855 229)">1528.851</text></g><g><text font-family="DengXian,DengXian_MSFontService,sans-serif" font-weight="400" font-size="13" transform="translate(788.483 229)">5116.719</text></g><g><text font-family="DengXian,DengXian_MSFontService,sans-serif" font-weight="400" font-size="13" transform="translate(671.11 229)">93.66267</text></g><g><text font-family="DengXian,DengXian_MSFontService,sans-serif" font-weight="400" font-size="13" transform="translate(553.737 229)">99.663</text></g><text font-family="DengXian,DengXian_MSFontService,sans-serif" font-weight="400" font-size="13" transform="translate(591.737 229)">54</text><g><text font-family="DengXian,DengXian_MSFontService,sans-serif" font-weight="400" font-size="13" transform="translate(436.365 229)">1547.756</text></g><g><text font-family="DengXian,DengXian_MSFontService,sans-serif" font-weight="400" font-size="13" transform="translate(318.992 229)">22.93276</text></g><g><text font-family="DengXian,DengXian_MSFontService,sans-serif" font-weight="400" font-size="13" transform="translate(251.717 229)">NC</text></g><g><text font-family="DengXian,DengXian_MSFontService,sans-serif" font-weight="400" font-size="13" transform="translate(188.976 229)">5</text></g><g><text font-family="DengXian,DengXian_MSFontService,sans-serif" font-weight="400" font-size="13" transform="translate(105.994 229)">sample1</text></g><g><text font-family="DengXian,DengXian_MSFontService,sans-serif" font-weight="400" font-size="13" transform="translate(1140.6 253)">59.38682</text></g><g><text font-family="DengXian,DengXian_MSFontService,sans-serif" font-weight="400" font-size="13" transform="translate(1023.23 253)">1813.25</text></g><text font-family="DengXian,DengXian_MSFontService,sans-serif" font-weight="400" font-size="13" transform="translate(1068.23 253)">2</text><g><text font-family="DengXian,DengXian_MSFontService,sans-serif" font-weight="400" font-size="13" transform="translate(905.855 253)">644.8299</text></g><g><text font-family="DengXian,DengXian_MSFontService,sans-serif" font-weight="400" font-size="13" transform="translate(788.483 253)">2227.108</text></g><g><text font-family="DengXian,DengXian_MSFontService,sans-serif" font-weight="400" font-size="13" transform="translate(553.737 253)">46.93408</text></g><g><text font-family="DengXian,DengXian_MSFontService,sans-serif" font-weight="400" font-size="13" transform="translate(436.365 253)">828.1276</text></g><g><text font-family="DengXian,DengXian_MSFontService,sans-serif" font-weight="400" font-size="13" transform="translate(318.992 253)">13.49252</text></g><g><text font-family="DengXian,DengXian_MSFontService,sans-serif" font-weight="400" font-size="13" transform="translate(251.717 253)">NC</text></g><g><text font-family="DengXian,DengXian_MSFontService,sans-serif" font-weight="400" font-size="13" transform="translate(188.976 253)">7</text></g><g><text font-family="DengXian,DengXian_MSFontService,sans-serif" font-weight="400" font-size="13" transform="translate(105.994 253)">sample2</text></g><g><text font-family="DengXian,DengXian_MSFontService,sans-serif" font-weight="400" font-size="13" transform="translate(1023.23 277)">2244.37</text></g><text font-family="DengXian,DengXian_MSFontService,sans-serif" font-weight="400" font-size="13" transform="translate(1068.23 277)">2</text><g><text font-family="DengXian,DengXian_MSFontService,sans-serif" font-weight="400" font-size="13" transform="translate(788.483 277)">2763.028</text></g><g><text font-family="DengXian,DengXian_MSFontService,sans-serif" font-weight="400" font-size="13" transform="translate(671.11 277)">54.82492</text></g><g><text font-family="DengXian,DengXian_MSFontService,sans-serif" font-weight="400" font-size="13" transform="translate(553.737 277)">71.88065</text></g><g><text font-family="DengXian,DengXian_MSFontService,sans-serif" font-weight="400" font-size="13" transform="translate(436.365 277)">1226.78</text></g><text font-family="DengXian,DengXian_MSFontService,sans-serif" font-weight="400" font-size="13" transform="translate(481.365 277)">2</text><g><text font-family="DengXian,DengXian_MSFontService,sans-serif" font-weight="400" font-size="13" transform="translate(251.717 277)">NC</text></g><g><text font-family="DengXian,DengXian_MSFontService,sans-serif" font-weight="400" font-size="13" transform="translate(188.976 277)">21</text></g><g><text font-family="DengXian,DengXian_MSFontService,sans-serif" font-weight="400" font-size="13" transform="translate(105.994 277)">sample3</text></g><g><text font-family="DengXian,DengXian_MSFontService,sans-serif" font-weight="400" font-size="13" transform="translate(1140.6 300)">64.89397</text></g><g><text font-family="DengXian,DengXian_MSFontService,sans-serif" font-weight="400" font-size="13" transform="translate(1023.23 300)">1647.214</text></g><g><text font-family="DengXian,DengXian_MSFontService,sans-serif" font-weight="400" font-size="13" transform="translate(905.855 300)">1393.227</text></g><g><text font-family="DengXian,DengXian_MSFontService,sans-serif" font-weight="400" font-size="13" transform="translate(671.11 300)">73.48348</text></g><g><text font-family="DengXian,DengXian_MSFontService,sans-serif" font-weight="400" font-size="13" transform="translate(436.365 300)">1746.671</text></g><g><text font-family="DengXian,DengXian_MSFontService,sans-serif" font-weight="400" font-size="13" transform="translate(251.717 300)">NC</text></g><g><text font-family="DengXian,DengXian_MSFontService,sans-serif" font-weight="400" font-size="13" transform="translate(188.976 300)">36</text></g><g><text font-family="DengXian,DengXian_MSFontService,sans-serif" font-weight="400" font-size="13" transform="translate(105.994 300)">sample4</text></g><g><text font-family="DengXian,DengXian_MSFontService,sans-serif" font-weight="400" font-size="13" transform="translate(1140.6 324)">55.15371</text></g><g><text font-family="DengXian,DengXian_MSFontService,sans-serif" font-weight="400" font-size="13" transform="translate(1023.23 324)">1525.563</text></g><g><text font-family="DengXian,DengXian_MSFontService,sans-serif" font-weight="400" font-size="13" transform="translate(905.855 324)">883.1991</text></g><g><text font-family="DengXian,DengXian_MSFontService,sans-serif" font-weight="400" font-size="13" transform="translate(788.483 324)">3105.376</text></g><g><text font-family="DengXian,DengXian_MSFontService,sans-serif" font-weight="400" font-size="13" transform="translate(671.11 324)">67.40095</text></g><g><text font-family="DengXian,DengXian_MSFontService,sans-serif" font-weight="400" font-size="13" transform="translate(553.737 324)">81.53871</text></g><g><text font-family="DengXian,DengXian_MSFontService,sans-serif" font-weight="400" font-size="13" transform="translate(436.365 324)">1272.809</text></g><g><text font-family="DengXian,DengXian_MSFontService,sans-serif" font-weight="400" font-size="13" transform="translate(318.992 324)">28.19333</text></g><g><text font-family="DengXian,DengXian_MSFontService,sans-serif" font-weight="400" font-size="13" transform="translate(251.717 324)">NC</text></g><g><text font-family="DengXian,DengXian_MSFontService,sans-serif" font-weight="400" font-size="13" transform="translate(188.976 324)">10</text></g><g><text font-family="DengXian,DengXian_MSFontService,sans-serif" font-weight="400" font-size="13" transform="translate(105.994 324)">sample5</text></g><g><text font-family="DengXian,DengXian_MSFontService,sans-serif" font-weight="400" font-size="13" transform="translate(1140.6 347)">25.03699</text></g><g><text font-family="DengXian,DengXian_MSFontService,sans-serif" font-weight="400" font-size="13" transform="translate(1023.23 347)">1487.753</text></g><g><text font-family="DengXian,DengXian_MSFontService,sans-serif" font-weight="400" font-size="13" transform="translate(905.855 347)">974.437</text></g><text font-family="DengXian,DengXian_MSFontService,sans-serif" font-weight="400" font-size="13" transform="translate(950.855 347)">2</text><g><text font-family="DengXian,DengXian_MSFontService,sans-serif" font-weight="400" font-size="13" transform="translate(788.483 347)">3079.073</text></g><g><text font-family="DengXian,DengXian_MSFontService,sans-serif" font-weight="400" font-size="13" transform="translate(553.737 347)">38.51718</text></g><g><text font-family="DengXian,DengXian_MSFontService,sans-serif" font-weight="400" font-size="13" transform="translate(436.365 347)">1349.252</text></g><g><text font-family="DengXian,DengXian_MSFontService,sans-serif" font-weight="400" font-size="13" transform="translate(251.717 347)">NC</text></g><g><text font-family="DengXian,DengXian_MSFontService,sans-serif" font-weight="400" font-size="13" transform="translate(188.976 347)">34</text></g><g><text font-family="DengXian,DengXian_MSFontService,sans-serif" font-weight="400" font-size="13" transform="translate(105.994 347)">sample6</text></g><g><text font-family="DengXian,DengXian_MSFontService,sans-serif" font-weight="400" font-size="13" transform="translate(1140.6 371)">45.29015</text></g><g><text font-family="DengXian,DengXian_MSFontService,sans-serif" font-weight="400" font-size="13" transform="translate(1023.23 371)">1179.517</text></g><g><text font-family="DengXian,DengXian_MSFontService,sans-serif" font-weight="400" font-size="13" transform="translate(788.483 371)">2210.258</text></g><g><text font-family="DengXian,DengXian_MSFontService,sans-serif" font-weight="400" font-size="13" transform="translate(671.11 371)">68.75719</text></g><g><text font-family="DengXian,DengXian_MSFontService,sans-serif" font-weight="400" font-size="13" transform="translate(553.737 371)">36.01841</text></g><g><text font-family="DengXian,DengXian_MSFontService,sans-serif" font-weight="400" font-size="13" transform="translate(436.365 371)">1004.85</text></g><text font-family="DengXian,DengXian_MSFontService,sans-serif" font-weight="400" font-size="13" transform="translate(481.365 371)">2</text><g><text font-family="DengXian,DengXian_MSFontService,sans-serif" font-weight="400" font-size="13" transform="translate(251.717 371)">NC</text></g><g><text font-family="DengXian,DengXian_MSFontService,sans-serif" font-weight="400" font-size="13" transform="translate(188.976 371)">18</text></g><g><text font-family="DengXian,DengXian_MSFontService,sans-serif" font-weight="400" font-size="13" transform="translate(105.994 371)">sample7</text></g><g><text font-family="DengXian,DengXian_MSFontService,sans-serif" font-weight="400" font-size="13" transform="translate(1140.6 394)">81.70311</text></g><g><text font-family="DengXian,DengXian_MSFontService,sans-serif" font-weight="400" font-size="13" transform="translate(1023.23 394)">5355.088</text></g><g><text font-family="DengXian,DengXian_MSFontService,sans-serif" font-weight="400" font-size="13" transform="translate(905.855 394)">2388.213</text></g><g><text font-family="DengXian,DengXian_MSFontService,sans-serif" font-weight="400" font-size="13" transform="translate(788.483 394)">4323.525</text></g><g><text font-family="DengXian,DengXian_MSFontService,sans-serif" font-weight="400" font-size="13" transform="translate(671.11 394)">82.64836</text></g><g><text font-family="DengXian,DengXian_MSFontService,sans-serif" font-weight="400" font-size="13" transform="translate(436.365 394)">2376.706</text></g><g><text font-family="DengXian,DengXian_MSFontService,sans-serif" font-weight="400" font-size="13" transform="translate(251.717 394)">NC</text></g><g><text font-family="DengXian,DengXian_MSFontService,sans-serif" font-weight="400" font-size="13" transform="translate(188.976 394)">20</text></g><g><text font-family="DengXian,DengXian_MSFontService,sans-serif" font-weight="400" font-size="13" transform="translate(105.994 394)">sample8</text></g><g><text font-family="DengXian,DengXian_MSFontService,sans-serif" font-weight="400" font-size="13" transform="translate(1140.6 418)">65.46934</text></g><g><text font-family="DengXian,DengXian_MSFontService,sans-serif" font-weight="400" font-size="13" transform="translate(1023.23 418)">2419.037</text></g><g><text font-family="DengXian,DengXian_MSFontService,sans-serif" font-weight="400" font-size="13" transform="translate(905.855 418)">1538.714</text></g><g><text font-family="DengXian,DengXian_MSFontService,sans-serif" font-weight="400" font-size="13" transform="translate(788.483 418)">3940.49</text></g><text font-family="DengXian,DengXian_MSFontService,sans-serif" font-weight="400" font-size="13" transform="translate(833.483 418)">2</text><g><text font-family="DengXian,DengXian_MSFontService,sans-serif" font-weight="400" font-size="13" transform="translate(671.11 418)">52.27684</text></g><g><text font-family="DengXian,DengXian_MSFontService,sans-serif" font-weight="400" font-size="13" transform="translate(553.737 418)">55.85238</text></g><g><text font-family="DengXian,DengXian_MSFontService,sans-serif" font-weight="400" font-size="13" transform="translate(436.365 418)">1600.773</text></g><g><text font-family="DengXian,DengXian_MSFontService,sans-serif" font-weight="400" font-size="13" transform="translate(251.717 418)">NC</text></g><g><text font-family="DengXian,DengXian_MSFontService,sans-serif" font-weight="400" font-size="13" transform="translate(188.976 418)">33</text></g><g><text font-family="DengXian,DengXian_MSFontService,sans-serif" font-weight="400" font-size="13" transform="translate(105.994 418)">sample9</text></g><g><text font-family="DengXian,DengXian_MSFontService,sans-serif" font-weight="400" font-size="13" transform="translate(1140.6 441)">92.05984</text></g><g><text font-family="DengXian,DengXian_MSFontService,sans-serif" font-weight="400" font-size="13" transform="translate(905.855 441)">2684.12</text></g><text font-family="DengXian,DengXian_MSFontService,sans-serif" font-weight="400" font-size="13" transform="translate(950.855 441)">2</text><g><text font-family="DengXian,DengXian_MSFontService,sans-serif" font-weight="400" font-size="13" transform="translate(788.483 441)">5815.387</text></g><g><text font-family="DengXian,DengXian_MSFontService,sans-serif" font-weight="400" font-size="13" transform="translate(553.737 441)">101.5124</text></g><g><text font-family="DengXian,DengXian_MSFontService,sans-serif" font-weight="400" font-size="13" transform="translate(436.365 441)">2014.22</text></g><text font-family="DengXian,DengXian_MSFontService,sans-serif" font-weight="400" font-size="13" transform="translate(481.365 441)">2</text><g><text font-family="DengXian,DengXian_MSFontService,sans-serif" font-weight="400" font-size="13" transform="translate(251.717 441)">NC</text></g><g><text font-family="DengXian,DengXian_MSFontService,sans-serif" font-weight="400" font-size="13" transform="translate(188.976 441)">4</text></g><g><text font-family="DengXian,DengXian_MSFontService,sans-serif" font-weight="400" font-size="13" transform="translate(105.994 441)">sample10</text></g><g><text font-family="DengXian,DengXian_MSFontService,sans-serif" font-weight="400" font-size="13" transform="translate(1140.6 465)">248.6438</text></g><g><text font-family="DengXian,DengXian_MSFontService,sans-serif" font-weight="400" font-size="13" transform="translate(1023.23 465)">16159.79</text></g><g><text font-family="DengXian,DengXian_MSFontService,sans-serif" font-weight="400" font-size="13" transform="translate(905.855 465)">8186.75</text></g><text font-family="DengXian,DengXian_MSFontService,sans-serif" font-weight="400" font-size="13" transform="translate(950.855 465)">2</text><g><text font-family="DengXian,DengXian_MSFontService,sans-serif" font-weight="400" font-size="13" transform="translate(788.483 465)">21555.98</text></g><g><text font-family="DengXian,DengXian_MSFontService,sans-serif" font-weight="400" font-size="13" transform="translate(671.11 465)">624.2808</text></g><g><text font-family="DengXian,DengXian_MSFontService,sans-serif" font-weight="400" font-size="13" transform="translate(553.737 465)">353.0741</text></g><g><text font-family="DengXian,DengXian_MSFontService,sans-serif" font-weight="400" font-size="13" transform="translate(436.365 465)">8749.795</text></g><g><text font-family="DengXian,DengXian_MSFontService,sans-serif" font-weight="400" font-size="13" transform="translate(318.992 465)">62.26369</text></g><g><text font-family="DengXian,DengXian_MSFontService,sans-serif" font-weight="400" font-size="13" transform="translate(251.717 465)">OP</text></g><g><text font-family="DengXian,DengXian_MSFontService,sans-serif" font-weight="400" font-size="13" transform="translate(188.976 465)">17</text></g><g><text font-family="DengXian,DengXian_MSFontService,sans-serif" font-weight="400" font-size="13" transform="translate(105.994 465)">sample11</text></g><g><text font-family="DengXian,DengXian_MSFontService,sans-serif" font-weight="400" font-size="13" transform="translate(1140.6 489)">132.8703</text></g><g><text font-family="DengXian,DengXian_MSFontService,sans-serif" font-weight="400" font-size="13" transform="translate(1023.23 489)">5046.852</text></g><g><text font-family="DengXian,DengXian_MSFontService,sans-serif" font-weight="400" font-size="13" transform="translate(905.855 489)">3587.868</text></g><g><text font-family="DengXian,DengXian_MSFontService,sans-serif" font-weight="400" font-size="13" transform="translate(788.483 489)">8515.535</text></g><g><text font-family="DengXian,DengXian_MSFontService,sans-serif" font-weight="400" font-size="13" transform="translate(671.11 489)">212.5596</text></g><g><text font-family="DengXian,DengXian_MSFontService,sans-serif" font-weight="400" font-size="13" transform="translate(553.737 489)">97.03271</text></g><g><text font-family="DengXian,DengXian_MSFontService,sans-serif" font-weight="400" font-size="13" transform="translate(436.365 489)">4261.877</text></g><g><text font-family="DengXian,DengXian_MSFontService,sans-serif" font-weight="400" font-size="13" transform="translate(318.992 489)">38.98981</text></g><g><text font-family="DengXian,DengXian_MSFontService,sans-serif" font-weight="400" font-size="13" transform="translate(251.717 489)">OP</text></g><g><text font-family="DengXian,DengXian_MSFontService,sans-serif" font-weight="400" font-size="13" transform="translate(188.976 489)">13</text></g><g><text font-family="DengXian,DengXian_MSFontService,sans-serif" font-weight="400" font-size="13" transform="translate(105.994 489)">sample12</text></g><g><text font-family="DengXian,DengXian_MSFontService,sans-serif" font-weight="400" font-size="13" transform="translate(1140.6 512)">43.23525</text></g><g><text font-family="DengXian,DengXian_MSFontService,sans-serif" font-weight="400" font-size="13" transform="translate(1023.23 512)">2690.284</text></g><g><text font-family="DengXian,DengXian_MSFontService,sans-serif" font-weight="400" font-size="13" transform="translate(905.855 512)">1177.873</text></g><g><text font-family="DengXian,DengXian_MSFontService,sans-serif" font-weight="400" font-size="13" transform="translate(788.483 512)">3077.018</text></g><g><text font-family="DengXian,DengXian_MSFontService,sans-serif" font-weight="400" font-size="13" transform="translate(671.11 512)">61.64721</text></g><g><text font-family="DengXian,DengXian_MSFontService,sans-serif" font-weight="400" font-size="13" transform="translate(553.737 512)">54.41394</text></g><g><text font-family="DengXian,DengXian_MSFontService,sans-serif" font-weight="400" font-size="13" transform="translate(436.365 512)">1339.388</text></g><g><text font-family="DengXian,DengXian_MSFontService,sans-serif" font-weight="400" font-size="13" transform="translate(251.717 512)">OP</text></g><g><text font-family="DengXian,DengXian_MSFontService,sans-serif" font-weight="400" font-size="13" transform="translate(188.976 512)">28</text></g><g><text font-family="DengXian,DengXian_MSFontService,sans-serif" font-weight="400" font-size="13" transform="translate(105.994 512)">sample13</text></g><g><text font-family="DengXian,DengXian_MSFontService,sans-serif" font-weight="400" font-size="13" transform="translate(1140.6 536)">113.9652</text></g><g><text font-family="DengXian,DengXian_MSFontService,sans-serif" font-weight="400" font-size="13" transform="translate(1023.23 536)">3086.881</text></g><g><text font-family="DengXian,DengXian_MSFontService,sans-serif" font-weight="400" font-size="13" transform="translate(788.483 536)">8597.731</text></g><g><text font-family="DengXian,DengXian_MSFontService,sans-serif" font-weight="400" font-size="13" transform="translate(553.737 536)">34.4649</text></g><text font-family="DengXian,DengXian_MSFontService,sans-serif" font-weight="400" font-size="13" transform="translate(598.737 536)">2</text><g><text font-family="DengXian,DengXian_MSFontService,sans-serif" font-weight="400" font-size="13" transform="translate(436.365 536)">2599.458</text></g><g><text font-family="DengXian,DengXian_MSFontService,sans-serif" font-weight="400" font-size="13" transform="translate(251.717 536)">OP</text></g><g><text font-family="DengXian,DengXian_MSFontService,sans-serif" font-weight="400" font-size="13" transform="translate(188.976 536)">42</text></g><g><text font-family="DengXian,DengXian_MSFontService,sans-serif" font-weight="400" font-size="13" transform="translate(105.994 536)">sample14</text></g><g><text font-family="DengXian,DengXian_MSFontService,sans-serif" font-weight="400" font-size="13" transform="translate(1140.6 559)">233.684</text></g><text font-family="DengXian,DengXian_MSFontService,sans-serif" font-weight="400" font-size="13" transform="translate(1185.6 559)">6</text><g><text font-family="DengXian,DengXian_MSFontService,sans-serif" font-weight="400" font-size="13" transform="translate(1023.23 559)">6246.918</text></g><g><text font-family="DengXian,DengXian_MSFontService,sans-serif" font-weight="400" font-size="13" transform="translate(905.855 559)">2318.346</text></g><g><text font-family="DengXian,DengXian_MSFontService,sans-serif" font-weight="400" font-size="13" transform="translate(788.483 559)">4204.34</text></g><text font-family="DengXian,DengXian_MSFontService,sans-serif" font-weight="400" font-size="13" transform="translate(833.483 559)">5</text><g><text font-family="DengXian,DengXian_MSFontService,sans-serif" font-weight="400" font-size="13" transform="translate(671.11 559)">101.0192</text></g><g><text font-family="DengXian,DengXian_MSFontService,sans-serif" font-weight="400" font-size="13" transform="translate(553.737 559)">128.3495</text></g><g><text font-family="DengXian,DengXian_MSFontService,sans-serif" font-weight="400" font-size="13" transform="translate(251.717 559)">OP</text></g><g><text font-family="DengXian,DengXian_MSFontService,sans-serif" font-weight="400" font-size="13" transform="translate(188.976 559)">14</text></g><g><text font-family="DengXian,DengXian_MSFontService,sans-serif" font-weight="400" font-size="13" transform="translate(105.994 559)">sample15</text></g></g></svg>